<?xml version="1.0" encoding="UTF-8"?>
<svg version="1.1" xmlns="http://www.w3.org/2000/svg" width="283" height="272">
<path d="M0 0 C0.9038048 -0.00467997 1.80760961 -0.00935994 2.73880243 -0.01418173 C5.74411181 -0.02607442 8.74896032 -0.01669695 11.75427246 -0.00723267 C13.91831222 -0.01130091 16.0823499 -0.0166442 18.24638367 -0.02316284 C24.10789036 -0.03681211 29.96923822 -0.03154758 35.8307476 -0.02202559 C41.9724558 -0.01441665 48.11415063 -0.02147803 54.25585938 -0.02618408 C64.56866897 -0.03163803 74.88141407 -0.02445945 85.19421387 -0.01016235 C97.10772004 0.00616341 109.02107217 0.00087465 120.9345746 -0.01564157 C131.17346656 -0.02926668 141.41231221 -0.03117107 151.65121031 -0.02332556 C157.76199079 -0.01865471 163.87269893 -0.0180081 169.98347473 -0.02793503 C175.72912601 -0.03661727 181.47457918 -0.03055961 187.22020912 -0.01325226 C189.325658 -0.00929416 191.43112362 -0.01040982 193.53656578 -0.01704025 C196.41677157 -0.02527254 199.29634769 -0.01491372 202.17651367 0 C203.00405859 -0.00669217 203.83160352 -0.01338433 204.68422556 -0.02027929 C216.26416464 0.09553855 225.35486148 5.06881794 233.44372559 13.25985718 C242.98208598 25.00503618 243.31547652 37.43902118 243.23522949 51.83016968 C243.24201499 53.88141656 243.25092334 55.93265734 243.26177979 57.98388672 C243.28446857 63.52528097 243.27577982 69.06620693 243.25988436 74.6076088 C243.24717126 80.42358861 243.25898045 86.23952998 243.26681519 92.05551147 C243.27589601 101.81998853 243.26396492 111.58427612 243.2401123 121.34872437 C243.21290421 132.61647699 243.22171947 143.88377715 243.24924433 155.15151882 C243.27197901 164.84872258 243.27511416 174.54579061 243.26205099 184.24301243 C243.25428047 190.02469352 243.25314876 195.80616237 243.26973343 201.58782959 C243.28424236 207.02505916 243.27403919 212.46170886 243.24526215 217.89887619 C243.2386856 219.88695694 243.24048977 221.87508701 243.25157547 223.86314774 C243.32287877 237.95630706 241.91834289 249.15984767 232.54138184 260.41220093 C225.34871112 267.66241301 215.67396568 272.47309402 205.45405132 272.52401853 C204.60834722 272.52315204 203.76264313 272.52228556 202.89131165 272.52139282 C201.54223592 272.52584951 201.54223592 272.52584951 200.16590613 272.53039622 C197.13976957 272.53909633 194.11367251 272.54059259 191.08752441 272.54208374 C188.92274897 272.54671103 186.75797435 272.55173557 184.59320068 272.55712891 C178.70253349 272.57026461 172.81187769 272.5767003 166.92119813 272.58113956 C163.24176711 272.58406878 159.56233922 272.58817333 155.88290977 272.59264374 C144.37337979 272.60632258 132.86385694 272.61598699 121.35431939 272.61984563 C108.06388856 272.62432561 94.77358246 272.64186913 81.48318177 272.67084622 C71.21386466 272.69245979 60.9445765 272.70254976 50.67523688 272.70388675 C44.54035121 272.70493513 38.4055622 272.71084991 32.27070045 272.72870636 C26.49806794 272.74518103 20.7256048 272.74734538 14.95295715 272.73856735 C12.83579747 272.73779662 10.7186287 272.74214439 8.60149193 272.7520256 C5.7074999 272.76473882 2.81410832 272.75887146 -0.07987976 272.7484436 C-0.91443024 272.75650001 -1.74898073 272.76455641 -2.60882062 272.77285695 C-12.68195618 272.68817822 -21.91120079 268.24189535 -29.42736816 261.59970093 C-36.93321674 253.63697461 -40.55893081 243.91928239 -40.56564331 233.12852478 C-40.57002556 232.2768823 -40.57440782 231.42523982 -40.57892287 230.54778999 C-40.59231836 227.68301134 -40.59849152 224.81826347 -40.60461426 221.95346069 C-40.61251488 219.90354778 -40.6207838 217.85363625 -40.62939453 215.8037262 C-40.65562777 209.05995006 -40.67092734 202.31616768 -40.68518066 195.57235718 C-40.69054054 193.25002475 -40.69591805 190.92769237 -40.70131302 188.60536003 C-40.72294709 178.94174646 -40.74168189 169.27813457 -40.75293541 159.61450291 C-40.76916032 145.77304627 -40.8022969 131.93187101 -40.85933626 118.09052044 C-40.89808298 108.3553211 -40.91757395 98.62019685 -40.92285597 88.88492244 C-40.92650401 83.07287362 -40.93846684 77.26112481 -40.97095871 71.44915962 C-41.0011209 65.97519019 -41.00732193 60.50170099 -40.99557495 55.02766609 C-40.99535487 53.02505195 -41.00360502 51.022415 -41.02122879 49.01987839 C-41.13837396 34.93527706 -39.82882184 23.65765451 -30.42346191 12.41610718 C-21.7618781 3.65361171 -12.16641594 -0.098387 0 0 Z " fill="#DFE1E1" transform="translate(40.4117431640625,-0.380950927734375)"/>
<path d="M0 0 C4.84901809 0.00566474 9.69798091 0.00232834 14.54699707 -0.00343704 C32.47574995 -0.02155174 50.39706052 0.01394997 68.31835938 0.57568359 C70.18760071 0.63379715 70.18760071 0.63379715 72.09460449 0.69308472 C100.55415486 1.69740415 100.55415486 1.69740415 107.90429688 8.36474609 C118.66888241 21.51499653 118.48957704 39.43021253 118.55273438 55.53271484 C118.55843445 56.69049942 118.56413452 57.848284 118.57000732 59.04115295 C118.57940038 61.48079532 118.58596846 63.92045005 118.58984375 66.36010742 C118.59950068 70.0266023 118.63056017 73.69252403 118.66210938 77.35888672 C118.84676961 117.9106867 118.84676961 117.9106867 107.75585938 131.01318359 C101.06737101 137.54392459 91.63321671 138.55918954 82.68554688 138.86083984 C81.7640686 138.90112305 80.84259033 138.94140625 79.89318848 138.98291016 C76.83737988 139.11010381 73.7813428 139.21545248 70.72460938 139.31787109 C69.12507416 139.37716293 69.12507416 139.37716293 67.4932251 139.43765259 C28.16288444 140.87953121 -11.5084159 141.11696852 -50.82275391 139.26269531 C-53.47199339 139.13871951 -56.12101114 139.03984097 -58.77148438 138.94677734 C-68.65435898 138.54786898 -78.3450825 137.47220576 -85.65039062 130.13037109 C-91.6486935 121.75230675 -94.06433916 112.19720193 -94.83789062 102.06787109 C-94.9552356 100.5653479 -94.9552356 100.5653479 -95.07495117 99.0324707 C-99.8553814 28.22267376 -99.8553814 28.22267376 -86.65039062 11.13037109 C-78.22773617 1.71582719 -68.80736759 1.53121541 -56.85546875 0.81835938 C-37.91565862 -0.1348543 -18.95805563 -0.02232768 0 0 Z " fill="#E93836" transform="translate(132.650390625,117.86962890625)"/>
<path d="M0 0 C3.96 0 7.92 0 12 0 C12.33 9.24 12.66 18.48 13 28 C15.64 26.02 18.28 24.04 21 22 C24.90992284 21.40357109 27.08913664 21.64807552 30.75 23.0625 C34.33620316 26.15061938 35.74868255 29.81566945 36.27996826 34.43334961 C36.39561892 37.2723678 36.41583373 40.09617372 36.3984375 42.9375 C36.40130768 43.97640381 36.40417786 45.01530762 36.40713501 46.08569336 C36.40916937 48.27425687 36.40368362 50.46283883 36.39111328 52.65136719 C36.37505125 55.98934834 36.39098397 59.32611873 36.41015625 62.6640625 C36.40817371 64.79687766 36.40432981 66.92969206 36.3984375 69.0625 C36.40451019 70.05435303 36.41058289 71.04620605 36.4168396 72.06811523 C36.35103238 78.59473385 35.71388741 83.76421117 31.375 88.9375 C27.55081318 90.64832042 24.09803732 90.86239285 20 90 C17.03293374 88.30803659 14.51517011 86.30271705 12 84 C12 85.98 12 87.96 12 90 C8.04 90 4.08 90 0 90 C0 60.3 0 30.6 0 0 Z " fill="#FDF7F7" transform="translate(149,142)"/>
<path d="M0 0 C0.9590625 -0.00257812 1.918125 -0.00515625 2.90625 -0.0078125 C5.5 0.125 5.5 0.125 8.5 1.125 C8.5 1.785 8.5 2.445 8.5 3.125 C9.82 3.785 11.14 4.445 12.5 5.125 C12.5 5.785 12.5 6.445 12.5 7.125 C13.16 7.125 13.82 7.125 14.5 7.125 C16.405247 12.22834017 17.92589023 16.58842706 17.5 22.125 C18.16 22.125 18.82 22.125 19.5 22.125 C19.5 28.065 19.5 34.005 19.5 40.125 C18.84 40.125 18.18 40.125 17.5 40.125 C17.45101562 40.78886719 17.40203125 41.45273438 17.3515625 42.13671875 C16.60896309 50.90707381 16.60896309 50.90707381 14.5 55.125 C13.84 55.125 13.18 55.125 12.5 55.125 C11.84 56.445 11.18 57.765 10.5 59.125 C9.84 59.125 9.18 59.125 8.5 59.125 C8.5 59.785 8.5 60.445 8.5 61.125 C5.41493912 62.15335363 3.2305728 62.25868434 0 62.25 C-0.9590625 62.25257812 -1.918125 62.25515625 -2.90625 62.2578125 C-5.5 62.125 -5.5 62.125 -8.5 61.125 C-11.5 57.68055556 -11.5 57.68055556 -11.5 55.125 C-12.49 54.795 -13.48 54.465 -14.5 54.125 C-16.51430083 50.41444583 -16.69402245 47.29648265 -16.5 43.125 C-17.16 43.125 -17.82 43.125 -18.5 43.125 C-18.5 35.865 -18.5 28.605 -18.5 21.125 C-17.84 21.125 -17.18 21.125 -16.5 21.125 C-16.5928125 19.330625 -16.5928125 19.330625 -16.6875 17.5 C-16.70943937 13.39002405 -15.63130434 10.6771739 -13.5 7.125 C-12.84 7.125 -12.18 7.125 -11.5 7.125 C-11.190625 6.50625 -10.88125 5.8875 -10.5625 5.25 C-7.97093527 0.06687053 -5.68858717 -0.0152919 0 0 Z " fill="#090909" transform="translate(166.5,36.875)"/>
<path d="M0 0 C1.58323688 -0.027193 3.16661062 -0.04648306 4.75 -0.0625 C6.07257813 -0.07990234 6.07257813 -0.07990234 7.421875 -0.09765625 C9.7818838 -0.00826198 11.74498524 0.33087179 14 1 C14 1.66 14 2.32 14 3 C15.1446875 3.309375 15.1446875 3.309375 16.3125 3.625 C19.86689823 5.44352933 20.58014015 7.33825618 22 11 C22 11.99 22 12.98 22 14 C22.66 14 23.32 14 24 14 C24.82546539 19.7520525 25.15437878 25.31779515 25.125 31.125 C25.13080078 32.28322266 25.13080078 32.28322266 25.13671875 33.46484375 C25.12941084 37.75458452 24.85027399 41.77562287 24 46 C23.34 46 22.68 46 22 46 C21.95875 47.175625 21.9175 48.35125 21.875 49.5625 C21.24258154 54.63991678 18.85998175 57.74550558 15 61 C10.50107208 62.8745533 4.83798409 62.08454729 0 62 C-0.495 60.515 -0.495 60.515 -1 59 C-1.598125 58.855625 -2.19625 58.71125 -2.8125 58.5625 C-5.81227815 57.79112848 -6.96795076 56.30567171 -9 54 C-12.51549802 47.20511949 -12.28018616 39.33576893 -12.3125 31.875 C-12.31797852 30.94510254 -12.32345703 30.01520508 -12.32910156 29.05712891 C-12.2567872 22.0289209 -11.22151945 15.66455834 -9 9 C-8.34 9 -7.68 9 -7 9 C-6.7525 8.195625 -6.505 7.39125 -6.25 6.5625 C-5.8375 5.716875 -5.425 4.87125 -5 4 C-2.9375 3.375 -2.9375 3.375 -1 3 C-0.67 2.01 -0.34 1.02 0 0 Z " fill="#050505" transform="translate(116,37)"/>
<path d="M0 0 C4.87130605 2.21423002 7.79075465 4.91723403 10.8125 9.3125 C11.84854876 12.41049291 11.92906541 15.26324911 11.91015625 18.515625 C11.90765869 19.39895508 11.90516113 20.28228516 11.90258789 21.19238281 C11.89348389 22.30452148 11.88437988 23.41666016 11.875 24.5625 C11.854375 28.11 11.83375 31.6575 11.8125 35.3125 C3.5625 35.3125 -4.6875 35.3125 -13.1875 35.3125 C-13.084375 37.849375 -12.98125 40.38625 -12.875 43 C-12.85010498 43.78979248 -12.82520996 44.57958496 -12.79956055 45.39331055 C-12.57349024 49.74365123 -12.0479754 52.82163547 -9.1875 56.3125 C-6.14470628 56.97930368 -6.14470628 56.97930368 -3.1875 56.3125 C-1.16399676 53.27724514 -0.86625982 52.11823798 -0.5625 48.625 C-0.376875 46.4903125 -0.376875 46.4903125 -0.1875 44.3125 C3.7725 44.3125 7.7325 44.3125 11.8125 44.3125 C12.18138707 51.78246316 12.36373272 56.2851918 7.8125 62.3125 C2.41498184 67.3150778 -2.03993237 67.67671682 -9.17578125 67.58203125 C-14.21129934 67.13138177 -17.22000517 65.66037001 -20.55821228 61.67678833 C-24.32590298 56.13918883 -24.91347698 51.72367483 -24.81640625 45.1171875 C-24.81881821 44.16611115 -24.82123016 43.21503479 -24.82371521 42.23513794 C-24.82274091 40.23663131 -24.8094476 38.23809629 -24.78442383 36.23974609 C-24.75001516 33.18884427 -24.76381232 30.14082738 -24.78320312 27.08984375 C-24.77630643 25.14061274 -24.76663565 23.19138915 -24.75390625 21.2421875 C-24.75886612 20.33580536 -24.76382599 19.42942322 -24.76893616 18.49557495 C-24.66604314 12.94275476 -23.89138057 9.71349635 -20.1875 5.3125 C-14.04729329 -0.21368604 -8.13909268 -2.55800056 0 0 Z " fill="#FDF7F6" transform="translate(220.1875,164.6875)"/>
<path d="M0 0 C1.30324219 -0.00386719 1.30324219 -0.00386719 2.6328125 -0.0078125 C4.875 0.125 4.875 0.125 6.875 1.125 C6.875 1.785 6.875 2.445 6.875 3.125 C7.4525 3.2075 8.03 3.29 8.625 3.375 C11.72190637 4.40730212 12.86125717 5.52662216 14.875 8.125 C18.02767637 14.93437404 18.3481377 21.53511378 18.25 28.9375 C18.24419922 29.99324219 18.23839844 31.04898438 18.23242188 32.13671875 C18.10964926 39.50307574 17.43982745 46.1633255 14.875 53.125 C14.215 53.125 13.555 53.125 12.875 53.125 C12.648125 53.929375 12.42125 54.73375 12.1875 55.5625 C11.5378125 56.8309375 11.5378125 56.8309375 10.875 58.125 C8.25 58.9375 8.25 58.9375 5.875 59.125 C5.875 59.785 5.875 60.445 5.875 61.125 C1.04747654 62.37081251 -5.52956709 63.42271645 -10.125 61.125 C-10.125 60.465 -10.125 59.805 -10.125 59.125 C-10.723125 58.856875 -11.32125 58.58875 -11.9375 58.3125 C-14.29985053 57.03008114 -15.58007928 56.3320296 -17.125 54.125 C-17.67677892 51.44568888 -17.90064586 48.86212045 -18.125 46.125 C-14.65174819 44.9672494 -11.76432552 45.05633348 -8.125 45.125 C-7.795 46.445 -7.465 47.765 -7.125 49.125 C-5.68859829 49.32073608 -4.25080496 49.50627816 -2.8125 49.6875 C-2.01199219 49.79191406 -1.21148437 49.89632812 -0.38671875 50.00390625 C2.04317116 50.27255178 2.04317116 50.27255178 4.875 49.125 C5.205 45.165 5.535 41.205 5.875 37.125 C3.4 37.62 3.4 37.62 0.875 38.125 C0.875 38.785 0.875 39.445 0.875 40.125 C-2.095 40.125 -5.065 40.125 -8.125 40.125 C-8.125 39.465 -8.125 38.805 -8.125 38.125 C-9.094375 37.8775 -10.06375 37.63 -11.0625 37.375 C-12.5784375 36.75625 -12.5784375 36.75625 -14.125 36.125 C-15 34 -15 34 -15.125 32.125 C-15.785 32.125 -16.445 32.125 -17.125 32.125 C-19.61047415 25.28994609 -20.51285472 17.45184118 -18.26171875 10.43359375 C-16.72860468 7.31994971 -14.75143285 5.36707682 -12.125 3.125 C-11.135 3.125 -10.145 3.125 -9.125 3.125 C-9.125 2.465 -9.125 1.805 -9.125 1.125 C-6.02102241 0.21546238 -3.22989778 -0.00964149 0 0 Z " fill="#050505" transform="translate(211.125,36.875)"/>
<path d="M0 0 C3.96 0 7.92 0 12 0 C12.02505615 1.62534668 12.0501123 3.25069336 12.07592773 4.92529297 C12.16987517 10.93742186 12.27012651 16.94943177 12.37231445 22.96142578 C12.41571137 25.56686629 12.45738286 28.17233611 12.49731445 30.77783203 C12.55490192 34.51604056 12.6186294 38.25410082 12.68359375 41.9921875 C12.70030624 43.16304901 12.71701874 44.33391052 12.73423767 45.54025269 C12.75418289 46.62122223 12.77412811 47.70219177 12.79467773 48.81591797 C12.81022202 49.77078094 12.8257663 50.72564392 12.84178162 51.70944214 C12.85454632 54.02952228 12.85454632 54.02952228 14 56 C17.82182177 55.46919142 20.18854897 54.68224002 23 52 C23.61562739 49.61156655 23.61562739 49.61156655 23.54589844 46.88598633 C23.56561707 45.84513382 23.58533569 44.80428131 23.60565186 43.73188782 C23.60688049 42.60993515 23.60810913 41.48798248 23.609375 40.33203125 C23.62591125 39.18208176 23.64244751 38.03213226 23.65948486 36.84733582 C23.7081282 33.16900377 23.72937287 29.49108562 23.75 25.8125 C23.77814588 23.32094253 23.80807134 20.82940449 23.83984375 18.33789062 C23.91389208 12.22529446 23.96336726 6.1129303 24 0 C27.63 0 31.26 0 35 0 C35 21.78 35 43.56 35 66 C31.37 66 27.74 66 24 66 C24 64.02 24 62.04 24 60 C23.45730469 60.42152344 22.91460937 60.84304687 22.35546875 61.27734375 C21.64003906 61.82519531 20.92460938 62.37304688 20.1875 62.9375 C19.47980469 63.48277344 18.77210937 64.02804688 18.04296875 64.58984375 C14.05871678 67.33996796 9.70959613 67.70264136 5 67 C2.03141843 64.79259319 1.17134209 63.51402627 0 60 C-0.08877175 58.05219171 -0.11761308 56.10143718 -0.11352539 54.15161133 C-0.11344986 52.9505928 -0.11337433 51.74957428 -0.11329651 50.51216125 C-0.10813522 49.21521835 -0.10297394 47.91827545 -0.09765625 46.58203125 C-0.09579077 45.24110466 -0.09436748 43.90017739 -0.09336853 42.55924988 C-0.08955356 39.03290927 -0.07973199 35.50660996 -0.06866455 31.98028564 C-0.0584285 28.38074299 -0.05386621 24.78119365 -0.04882812 21.18164062 C-0.0381088 14.12107526 -0.02052025 7.06054467 0 0 Z " fill="#FDF1F0" transform="translate(102,165)"/>
<path d="M0 0 C14.19 0 28.38 0 43 0 C43 3.96 43 7.92 43 12 C38.05 12 33.1 12 28 12 C28 37.74 28 63.48 28 90 C23.38 90 18.76 90 14 90 C14 64.26 14 38.52 14 12 C9.38 12 4.76 12 0 12 C0 8.04 0 4.08 0 0 Z " fill="#FDF0F0" transform="translate(57,142)"/>
<path d="M0 0 C0 0.66 0 1.32 0 2 C0.639375 2.103125 1.27875 2.20625 1.9375 2.3125 C2.618125 2.539375 3.29875 2.76625 4 3 C4.495 4.485 4.495 4.485 5 6 C5.99 6.33 6.98 6.66 8 7 C9.28771857 10.21557469 9.16608383 13.57341231 9.1875 17 C9.20167969 18.03125 9.21585938 19.0625 9.23046875 20.125 C9.00276947 22.96545203 8.46504061 24.59107948 7 27 C6.34 27 5.68 27 5 27 C4.731875 27.804375 4.46375 28.60875 4.1875 29.4375 C3.795625 30.283125 3.40375 31.12875 3 32 C1.515 32.495 1.515 32.495 0 33 C-0.68486725 34.32407669 -1.34870203 35.65909241 -2 37 C-5.32673267 40.88118812 -5.32673267 40.88118812 -8.125 41.375 C-8.74375 41.58125 -9.3625 41.7875 -10 42 C-10.66 43.98 -11.32 45.96 -12 48 C-5.07 48 1.86 48 9 48 C9 51.96 9 55.92 9 60 C-3.21 60 -15.42 60 -28 60 C-28 53.22337301 -27.90918656 51.49513017 -25 46 C-24.01 45.34 -23.02 44.68 -22 44 C-21.71125 43.401875 -21.4225 42.80375 -21.125 42.1875 C-19.57517079 39.1739432 -17.53326311 37.22432858 -15 35 C-14.01 35 -13.02 35 -12 35 C-11.34 33.68 -10.68 32.36 -10 31 C-9.34 31 -8.68 31 -8 31 C-7.5359375 30.071875 -7.5359375 30.071875 -7.0625 29.125 C-6.375 27.75 -5.6875 26.375 -5 25 C-4.34 25 -3.68 25 -3 25 C-3 20.71 -3 16.42 -3 12 C-8.98679347 11.26657851 -8.98679347 11.26657851 -15 11 C-15.66 13.64 -16.32 16.28 -17 19 C-19.64 19 -22.28 19 -25 19 C-25 18.34 -25 17.68 -25 17 C-25.66 17 -26.32 17 -27 17 C-26.85892253 15.54119891 -26.71197585 14.08296449 -26.5625 12.625 C-26.48128906 11.81289063 -26.40007813 11.00078125 -26.31640625 10.1640625 C-26 8 -26 8 -25 6 C-24.34 6 -23.68 6 -23 6 C-22.67 5.01 -22.34 4.02 -22 3 C-19.9375 2.3125 -19.9375 2.3125 -18 2 C-18 1.34 -18 0.68 -18 0 C-12.26944418 -1.52814822 -5.64409459 -1.88136486 0 0 Z " fill="#040404" transform="translate(87,38)"/>
<path d="M0 0 C2.97 0 5.94 0 9 0 C9 9.57 9 19.14 9 29 C10.65 29 12.3 29 14 29 C14 29.99 14 30.98 14 32 C13.34805664 32.36134033 12.69611328 32.72268066 12.02441406 33.0949707 C9.59865905 35.37767287 9.68057284 35.97522397 9.54589844 39.19604492 C9.54653155 40.95764649 9.56911988 42.71932707 9.609375 44.48046875 C9.61503479 45.40845779 9.62069458 46.33644684 9.62652588 47.29255676 C9.64892624 50.25806146 9.69912927 53.2223602 9.75 56.1875 C9.77006027 58.19724818 9.78831187 60.20701529 9.8046875 62.21679688 C9.84880304 67.14499629 9.91785576 72.07229365 10 77 C10.99 77.33 11.98 77.66 13 78 C14.1875 80.0625 14.1875 80.0625 15 82 C12 83 12 83 9 82 C9 83.65 9 85.3 9 87 C6.03 87 3.06 87 0 87 C0 58.29 0 29.58 0 0 Z " fill="#FEFDFC" transform="translate(151,143)"/>
<path d="M0 0 C5.39331003 0.4314648 8.85462751 1.44682358 13 5 C13.875 7.75 13.875 7.75 14 10 C14.99 10.33 15.98 10.66 17 11 C17.38133299 12.9914056 17.71325582 14.99279077 18 17 C17.505 17.495 17.505 17.495 17 18 C16.78673597 23.6047709 16.78673597 23.6047709 18 29 C17.7215625 30.0209375 17.7215625 30.0209375 17.4375 31.0625 C17.293125 31.701875 17.14875 32.34125 17 33 C17.66 33.66 18.32 34.32 19 35 C18.01 36.32 17.02 37.64 16 39 C16.99 39.495 16.99 39.495 18 40 C18 40.66 18 41.32 18 42 C17.01 42 16.02 42 15 42 C15.28127421 43.48117801 15.57533732 44.95993249 15.875 46.4375 C16.03742188 47.26121094 16.19984375 48.08492187 16.3671875 48.93359375 C16.57601562 49.61550781 16.78484375 50.29742187 17 51 C17.99 51.495 17.99 51.495 19 52 C19.495 51.01 19.495 51.01 20 50 C21 53 21 53 20.0625 55.1875 C19.711875 55.785625 19.36125 56.38375 19 57 C18.34 57 17.68 57 17 57 C16.38125 57.928125 15.7625 58.85625 15.125 59.8125 C13.18551983 62.72172025 11.74936123 64.00908325 9 66 C8.505 67.485 8.505 67.485 8 69 C2.98240699 71.24926583 -1.55207995 72.43250833 -7 73 C-7 72.34 -7 71.68 -7 71 C-9.38564077 71.57584432 -11.66682784 72.22227595 -14 73 C-14 72.34 -14 71.68 -14 71 C-14.66 70.67 -15.32 70.34 -16 70 C-15.505 69.505 -15.505 69.505 -15 69 C-15.5775 68.46375 -16.155 67.9275 -16.75 67.375 C-21.34234031 62.52752968 -23.46274263 58.71571707 -24 52 C-24.66 52 -25.32 52 -26 52 C-25.84402344 50.82308594 -25.68804687 49.64617187 -25.52734375 48.43359375 C-24.69902967 41.00205885 -24.66885442 33.5169623 -24.52319336 26.04663086 C-24.48364787 24.105113 -24.43147859 22.16386505 -24.37890625 20.22265625 C-24.3538501 19.07547119 -24.32879395 17.92828613 -24.30297852 16.74633789 C-24 14 -24 14 -22 12 C-21.99589111 13.29099609 -21.99178223 14.58199219 -21.98754883 15.91210938 C-21.96568248 20.72826383 -21.91131477 25.54361003 -21.84741211 30.359375 C-21.82429747 32.43872294 -21.80985182 34.51818687 -21.80444336 36.59765625 C-21.79510606 39.59708394 -21.75401064 42.59470362 -21.70703125 45.59375 C-21.7109639 46.51490601 -21.71489655 47.43606201 -21.71894836 48.38513184 C-21.57690015 54.75104758 -20.11218254 59.07628322 -16 64 C-10.75819572 68.09116432 -4.35808692 67.63755542 2 67 C6.77951721 65.37837809 9.18933474 63.16394853 12 59 C13.00259507 55.99221479 13.30314642 53.46179353 13.5625 50.3125 C13.706875 48.559375 13.85125 46.80625 14 45 C10.04 45 6.08 45 2 45 C2.061875 46.4025 2.12375 47.805 2.1875 49.25 C2.17362573 52.18672074 2.06848978 53.8439955 0.875 56.5625 C-1 58 -1 58 -3.9375 58.625 C-7 58 -7 58 -9.17578125 55.484375 C-11.40563451 51.22521202 -11.46883014 48.31629219 -11.25 43.625 C-11.1675 41.10875 -11.085 38.5925 -11 36 C-2.75 36 5.5 36 14 36 C13.896875 32.514375 13.79375 29.02875 13.6875 25.4375 C13.66260498 24.35267334 13.63770996 23.26784668 13.61206055 22.15014648 C13.35133882 15.25402506 12.78451005 9.71123347 7.625 4.6875 C5.13055532 3.08392842 2.79951576 1.95983397 0 1 C0 0.67 0 0.34 0 0 Z " fill="#CC4240" transform="translate(218,164)"/>
<path d="M0 0 C2.97 0 5.94 0 9 0 C9 20.79 9 41.58 9 63 C6.03 63 3.06 63 0 63 C0 61.02 0 59.04 0 57 C-0.99 56.67 -1.98 56.34 -3 56 C-2.67657623 55.28326614 -2.35315247 54.56653229 -2.01992798 53.82807922 C-0.97579425 50.93288176 -0.7267246 48.81166927 -0.68115234 45.75073242 C-0.66128265 44.73005173 -0.64141296 43.70937103 -0.62094116 42.65776062 C-0.60938995 41.5680043 -0.59783875 40.47824799 -0.5859375 39.35546875 C-0.56657135 38.2305452 -0.5472052 37.10562164 -0.5272522 35.9466095 C-0.4675629 32.36031634 -0.42111306 28.77399091 -0.375 25.1875 C-0.33681047 22.75324136 -0.29775817 20.31899608 -0.2578125 17.88476562 C-0.16187002 11.92329595 -0.07679125 5.96174547 0 0 Z " fill="#FDFCFC" transform="translate(127,167)"/>
<path d="M0 0 C1.8125 1.25 1.8125 1.25 3 3 C3 4.32 3 5.64 3 7 C3.66 7 4.32 7 5 7 C5 14.92 5 22.84 5 31 C4.34 31 3.68 31 3 31 C2.87625 32.11375 2.7525 33.2275 2.625 34.375 C2 38 2 38 0 40 C-3.625 39.625 -3.625 39.625 -7 39 C-9.668324 32.3717373 -10.46774591 26.55317259 -10.375 19.4375 C-10.38660156 18.54353516 -10.39820312 17.64957031 -10.41015625 16.72851562 C-10.38425744 10.82790385 -9.51631664 6.35791323 -7 1 C-4.45132831 -0.27433584 -2.82594567 -0.27570202 0 0 Z " fill="#D7D8D8" transform="translate(125,48)"/>
<path d="M0 0 C3.04914705 3.91342189 3.38466065 6.99405893 3.3984375 11.875 C3.40230469 13.18984375 3.40617188 14.5046875 3.41015625 15.859375 C3.40387207 16.53935547 3.39758789 17.21933594 3.39111328 17.91992188 C3.37504525 19.99415892 3.39098732 22.06644796 3.41015625 24.140625 C3.40628906 25.45546875 3.40242187 26.7703125 3.3984375 28.125 C3.39505371 29.32382813 3.39166992 30.52265625 3.38818359 31.7578125 C2.97016888 35.24915551 2.02209214 37.16197594 0 40 C-3.96 39.505 -3.96 39.505 -8 39 C-9.69815914 35.29550041 -10.25617389 32.38921065 -10.265625 28.32421875 C-10.26949219 26.71063477 -10.26949219 26.71063477 -10.2734375 25.06445312 C-10.26570312 23.95005859 -10.25796875 22.83566406 -10.25 21.6875 C-10.25773438 20.58470703 -10.26546875 19.48191406 -10.2734375 18.34570312 C-10.25890253 12.25918266 -10.06485131 6.76093516 -8 1 C-4.95729435 -0.01423522 -3.15860793 -0.47379119 0 0 Z " fill="#DEE0DF" transform="translate(170,48)"/>
<path d="M0 0 C1.67894952 3.35789905 1.16316336 7.14684746 1.16796875 10.83984375 C1.17129715 11.71774063 1.17462555 12.59563751 1.17805481 13.50013733 C1.18312218 15.35872879 1.18546319 17.21732937 1.18530273 19.07592773 C1.18748849 21.92251547 1.20564408 24.76871529 1.22460938 27.61523438 C1.22754345 29.4192695 1.22952815 31.22330648 1.23046875 33.02734375 C1.23765427 33.88053696 1.24483978 34.73373016 1.25224304 35.61277771 C1.2288279 41.65675815 1.2288279 41.65675815 -1 45 C-7.875 44.125 -7.875 44.125 -9 43 C-9.08874135 39.89748799 -9.11518455 36.8173188 -9.09765625 33.71484375 C-9.0962413 32.78402481 -9.09482635 31.85320587 -9.09336853 30.8941803 C-9.08775172 27.90858809 -9.0751964 24.92306971 -9.0625 21.9375 C-9.05748716 19.91862087 -9.05292388 17.89974057 -9.04882812 15.88085938 C-9.03777683 10.92054428 -9.02050095 5.96028468 -9 1 C-5.5449353 -0.91538768 -3.83748409 -1.24458943 0 0 Z " fill="#CE4747" transform="translate(171,176)"/>
<path d="M0 0 C0.639375 0.268125 1.27875 0.53625 1.9375 0.8125 C3.4534375 1.4003125 3.4534375 1.4003125 5 2 C5.87785156 2.37898437 5.87785156 2.37898437 6.7734375 2.765625 C13.47987423 5.38653131 20.22654246 5.65305208 27.34033203 5.90283203 C30.19551539 6.00714293 33.04843401 6.14273819 35.90234375 6.27734375 C75.33668895 7.95956566 115.06754929 7.7012252 154.5 6.0625 C155.55121033 6.01902435 156.60242065 5.97554871 157.68548584 5.93075562 C160.63440787 5.80528882 163.58286742 5.67267955 166.53125 5.53515625 C167.38038971 5.49655487 168.22952942 5.45795349 169.10440063 5.41818237 C174.11265443 5.16693049 179.03137055 4.68016124 184 4 C183.67 4.99 183.34 5.98 183 7 C155.0677541 10.35738643 127.00974923 10.24297864 98.92602539 10.07904053 C91.11658175 10.03489453 83.30708902 10.00623763 75.49755859 9.9829998 C72.79129259 9.9728117 70.08513152 9.95580303 67.37890625 9.93800354 C65.74739673 9.93118759 64.11588633 9.92457863 62.484375 9.91821289 C61.73565125 9.91147552 60.98692749 9.90473816 60.21551514 9.89779663 C58.47668068 9.89390549 56.73784855 9.94132447 55 10 C54.67 10.33 54.34 10.66 54 11 C52.0219546 10.75274433 50.044009 10.50467771 48.06640625 10.25390625 C43.47490843 9.87371853 38.8969368 9.95716145 34.29296875 10.03735352 C29.43128947 10.09531103 24.81437952 9.693184 20 9 C20 8.34 20 7.68 20 7 C19.030625 7.226875 18.06125 7.45375 17.0625 7.6875 C11.36810681 8.50925186 6.24535704 6.36912014 1.4375 3.4375 C0.963125 2.963125 0.48875 2.48875 0 2 C0 1.34 0 0.68 0 0 Z " fill="#E8CFD0" transform="translate(49,250)"/>
<path d="M0 0 C4.84901809 0.00566474 9.69798091 0.00232834 14.54699707 -0.00343704 C32.47574995 -0.02155174 50.39706052 0.01394997 68.31835938 0.57568359 C70.18760071 0.63379715 70.18760071 0.63379715 72.09460449 0.69308472 C79.86564821 0.96731991 87.6017596 1.4735844 95.34960938 2.13037109 C95.34960938 2.46037109 95.34960938 2.79037109 95.34960938 3.13037109 C88.37045293 3.16089287 81.39132032 3.18006157 74.41210938 3.19287109 C73.34263062 3.19514709 72.27315186 3.1974231 71.17126465 3.19976807 C58.94891301 3.21951008 46.73608988 3.16165818 34.51757812 2.83740234 C33.48430893 2.80998962 32.45103973 2.7825769 31.38645935 2.7543335 C29.31920972 2.69890544 27.25196419 2.64332385 25.1847229 2.58758545 C8.52522961 2.14363112 -7.89865162 2.20396768 -24.5234375 3.36376953 C-41.88314692 4.54989719 -59.25990181 4.31381507 -76.65039062 4.13037109 C-73.55532582 2.35558459 -71.06928232 1.79900571 -67.5234375 1.54003906 C-66.05958618 1.43003571 -66.05958618 1.43003571 -64.56616211 1.31781006 C-63.60395752 1.2559552 -62.64175293 1.19410034 -61.65039062 1.13037109 C-60.84480713 1.07544495 -60.03922363 1.0205188 -59.20922852 0.96392822 C-39.50357837 -0.25477252 -19.73302504 -0.02324039 0 0 Z " fill="#E5615F" transform="translate(132.650390625,117.86962890625)"/>
<path d="M0 0 C2.7581963 -0.00161654 5.51638432 -0.00517753 8.27457809 -0.00918579 C12.67810782 -0.0150675 17.08160287 -0.01524497 21.48513412 -0.01093674 C23.12575894 -0.0099437 24.76638556 -0.01051898 26.40700912 -0.01277542 C28.67947891 -0.01534283 30.95185288 -0.01149742 33.22431564 -0.00601196 C34.50374542 -0.00521637 35.7831752 -0.00442078 37.10137558 -0.00360107 C41.07897688 0.13214522 44.87947793 0.59302372 48.82221603 1.12338257 C51.06428329 1.23787728 53.30822761 1.32062298 55.55268478 1.36947632 C56.76762619 1.40234741 57.9825676 1.43521851 59.23432541 1.46908569 C61.76287287 1.53056615 64.29152644 1.58781964 66.82026291 1.64096069 C68.63687424 1.69220093 68.63687424 1.69220093 70.49018478 1.74447632 C72.13410202 1.78206055 72.13410202 1.78206055 73.81122971 1.82040405 C76.83590852 2.12476037 79.07776329 2.85002527 81.82221603 4.12338257 C78.3750311 5.2319573 75.5367759 5.06550945 71.95136642 4.72055054 C64.88716725 4.10840795 57.84224869 3.78861618 50.75580978 3.56869507 C49.75227368 3.53729116 49.75227368 3.53729116 48.72846413 3.50525284 C30.69697309 2.95681678 12.66142851 2.97135415 -5.37675858 2.99301147 C-10.15368098 2.99870397 -14.93054754 2.99532734 -19.70746803 2.98955917 C-42.5500648 2.96636262 -65.35105793 3.24351702 -88.17778397 4.12338257 C-87.84778397 3.13338257 -87.51778397 2.14338257 -87.17778397 1.12338257 C-58.11905525 0.24274406 -29.07008107 0.01124299 0 0 Z " fill="#F7D0D1" transform="translate(150.17778396606445,115.87661743164063)"/>
<path d="M0 0 C0.33 0 0.66 0 1 0 C1.01458252 1.09465576 1.02916504 2.18931152 1.04418945 3.31713867 C1.10228739 7.38956905 1.17951927 11.46145315 1.26245117 15.53344727 C1.29564654 17.29377355 1.32369524 19.05420488 1.34643555 20.81469727 C1.3800812 23.34957525 1.4324006 25.88349523 1.48828125 28.41796875 C1.49467117 29.20149216 1.5010611 29.98501556 1.50764465 30.7922821 C1.64135768 35.79374782 2.38949129 39.38949129 6 43 C11.63971661 43.38235367 15.08474777 43.08632116 20 40 C21.01801357 39.01834406 22.0246803 38.02408568 23 37 C23.66 37 24.32 37 25 37 C25 39.31 25 41.62 25 44 C28.96 44 32.92 44 37 44 C37 30.14 37 16.28 37 2 C37.33 2 37.66 2 38 2 C38.02505615 3.13542236 38.0501123 4.27084473 38.07592773 5.44067383 C38.17005576 9.65075081 38.27026337 13.86066488 38.37231445 18.07055664 C38.41564287 19.89310904 38.45731947 21.71570148 38.49731445 23.53833008 C38.55506762 26.15718661 38.61874756 28.77584195 38.68359375 31.39453125 C38.70030624 32.21025101 38.71701874 33.02597076 38.73423767 33.8664093 C38.82013245 37.14179544 38.95752134 39.87256401 40 43 C38 46 38 46 36.1875 46.8125 C33.34988083 47.0557245 31.54477164 46.20169772 29 45 C29.495 46.98 29.495 46.98 30 49 C28.515 49.495 28.515 49.495 27 50 C26.34 48.68 25.68 47.36 25 46 C21.64762596 46.55872901 18.97528893 47.35846128 16 49 C13.29120665 50.35439668 10.99066732 50.06501451 8 50 C8 49.01 8 48.02 8 47 C6.02 47 4.04 47 2 47 C1.87625 46.38125 1.7525 45.7625 1.625 45.125 C1.12802644 42.80879168 1.12802644 42.80879168 -1 41 C-1.71408334 39.01643517 -2.38617742 37.01684563 -3 35 C-2.34 35 -1.68 35 -1 35 C-1.01160156 33.98164063 -1.02320312 32.96328125 -1.03515625 31.9140625 C-1.11663552 21.2390044 -0.69761657 10.65111011 0 0 Z " fill="#C93332" transform="translate(101,188)"/>
<path d="M0 0 C1.65 0.33 3.3 0.66 5 1 C4.80301514 1.527146 4.60603027 2.05429199 4.40307617 2.59741211 C-5.54670312 30.57069733 -7.54190249 83.76055554 5 111 C5.65571568 112.33875284 6.31877562 113.67404541 7 115 C5.515 115.495 5.515 115.495 4 116 C3.87625 115.360625 3.7525 114.72125 3.625 114.0625 C3.41875 113.381875 3.2125 112.70125 3 112 C2.34 111.67 1.68 111.34 1 111 C0.18359375 108.890625 0.18359375 108.890625 -0.5625 106.25 C-0.81128906 105.38890625 -1.06007812 104.5278125 -1.31640625 103.640625 C-1.77922463 101.85282371 -2.18144385 100.0484278 -2.52734375 98.234375 C-2.77962979 96.03855158 -2.77962979 96.03855158 -4 95 C-4.23678716 92.30764224 -4.42198025 89.63501844 -4.5625 86.9375 C-4.60568359 86.17888672 -4.64886719 85.42027344 -4.69335938 84.63867188 C-4.79973633 82.75934562 -4.90039934 80.87969756 -5 79 C-4.34 79 -3.68 79 -3 79 C-3.16233124 78.42561188 -3.32466248 77.85122375 -3.49191284 77.25942993 C-3.99182557 75.03635116 -4.12683661 73.12246729 -4.12939453 70.84912109 C-4.13254669 70.04082855 -4.13569885 69.23253601 -4.13894653 68.39974976 C-4.1369223 67.53306671 -4.13489807 66.66638367 -4.1328125 65.7734375 C-4.13376923 64.87058014 -4.13472595 63.96772278 -4.13571167 63.0375061 C-4.13639175 61.12607758 -4.13454942 59.21464673 -4.13037109 57.30322266 C-4.12505782 54.40652126 -4.13030249 51.50997759 -4.13671875 48.61328125 C-4.13605721 46.74999966 -4.13477448 44.88671817 -4.1328125 43.0234375 C-4.13483673 42.16889984 -4.13686096 41.31436218 -4.13894653 40.43392944 C-4.0807492 25.1614984 -4.0807492 25.1614984 -2 21 C-1.79777644 19.33727297 -1.63588613 17.66945815 -1.5 16 C-1.11111111 11.22222222 -1.11111111 11.22222222 0 9 C0.06950541 7.45976004 0.08452357 5.91665012 0.0625 4.375 C0.05347656 3.55773437 0.04445313 2.74046875 0.03515625 1.8984375 C0.02355469 1.27195313 0.01195312 0.64546875 0 0 Z " fill="#DED1D3" transform="translate(39,131)"/>
<path d="M0 0 C5.19208581 1.8880312 6.43593317 6.04376054 8.67578125 10.77734375 C13.36429777 22.18745033 13.15544686 35.24639451 13.203125 47.40234375 C13.20882507 48.56012833 13.21452515 49.7179129 13.22039795 50.91078186 C13.22979101 53.35042423 13.23635908 55.79007896 13.24023438 58.22973633 C13.2498913 61.89623121 13.2809508 65.56215294 13.3125 69.22851562 C13.36235748 79.97635111 13.26328742 90.59876946 11.734375 101.25390625 C11.57186249 102.42227272 11.57186249 102.42227272 11.40606689 103.61424255 C10.51118388 109.00346736 8.62297641 113.21140922 6 118 C5.67 118 5.34 118 5 118 C5 116.35 5 114.7 5 113 C5.66 113 6.32 113 7 113 C6.79375 111.88625 6.5875 110.7725 6.375 109.625 C6.25125 108.42875 6.1275 107.2325 6 106 C6.99 105.01 6.99 105.01 8 104 C8.94887465 98.02208971 9.07181986 92.23189385 8.9375 86.1875 C9 84 9 84 10 83 C10.0728714 79.98950039 9.99617197 76.99107437 9.9375 73.98046875 C10 71 10 71 10.4934082 69.08300781 C11.41272229 65.3029655 11.19072903 61.43482099 11.1875 57.5625 C11.18741943 56.66523193 11.18733887 55.76796387 11.18725586 54.84350586 C11.13552088 48.77962168 10.60439825 43.00315066 9.50390625 37.03125 C8.78334116 32.69668788 8.56548457 28.35745737 8.34375 23.97265625 C7.97343239 20.77025053 7.03825717 18.04183609 6 15 C6.375 12.625 6.375 12.625 7 11 C6.01 10.67 5.02 10.34 4 10 C1.04059383 6.92677052 0.47482665 4.17847455 0 0 Z " fill="#C54142" transform="translate(238,126)"/>
<path d="M0 0 C3.96 0 7.92 0 12 0 C12.02505615 0.83772949 12.0501123 1.67545898 12.07592773 2.53857422 C12.17100357 5.64352256 12.27024025 8.74830181 12.37231445 11.85302734 C12.43698251 13.85894807 12.49683106 15.86502228 12.55664062 17.87109375 C12.61948242 19.75634766 12.61948242 19.75634766 12.68359375 21.6796875 C12.72025146 22.84226074 12.75690918 24.00483398 12.79467773 25.20263672 C12.81821659 27.9535501 12.81821659 27.9535501 14 30 C13.01 30 12.02 30 11 30 C11 20.43 11 10.86 11 1 C8.03 1 5.06 1 2 1 C2 29.71 2 58.42 2 88 C4.97 88 7.94 88 11 88 C11 86.35 11 84.7 11 83 C11.99 83.33 12.98 83.66 14 84 C13.34 84 12.68 84 12 84 C12 85.98 12 87.96 12 90 C8.04 90 4.08 90 0 90 C0 60.3 0 30.6 0 0 Z " fill="#FDD1D1" transform="translate(149,142)"/>
<path d="M0 0 C-0.50429791 3.53008536 -1.00874577 7.04985091 -1.625 10.5625 C-2.15757747 13.87264333 -2.15757747 13.87264333 -1.49609375 16.59765625 C-0.84091327 21.0910594 -1.14155742 25.35762354 -1.4375 29.875 C-1.48970703 30.75414062 -1.54191406 31.63328125 -1.59570312 32.5390625 C-1.72447561 34.69307499 -1.86141463 36.84659659 -2 39 C-2.33 39 -2.66 39 -3 39 C-3.33 50.22 -3.66 61.44 -4 73 C-7.96 73 -11.92 73 -16 73 C-16 72.67 -16 72.34 -16 72 C-12.37 72 -8.74 72 -5 72 C-5 50.22 -5 28.44 -5 6 C-8.63 6 -12.26 6 -16 6 C-16 23.16 -16 40.32 -16 58 C-16.33 58 -16.66 58 -17 58 C-17.14282731 50.79175615 -17.28519715 43.58350337 -17.42724609 36.37524414 C-17.47564278 33.92211705 -17.52414491 31.46899203 -17.57275391 29.01586914 C-17.64252886 25.49365773 -17.7119269 21.97143907 -17.78125 18.44921875 C-17.80312378 17.34913986 -17.82499756 16.24906097 -17.84753418 15.11564636 C-17.86755493 14.09481461 -17.88757568 13.07398285 -17.90820312 12.0222168 C-17.92596802 11.12286911 -17.94373291 10.22352142 -17.96203613 9.29692078 C-17.99121568 7.53147629 -18 5.76568561 -18 4 C-13.94952424 2.64984141 -11.2079832 3.37915002 -7 4 C-6.67 3.01 -6.34 2.02 -6 1 C-5.67 1.66 -5.34 2.32 -5 3 C-4.360625 2.505 -3.72125 2.01 -3.0625 1.5 C-1 0 -1 0 0 0 Z " fill="#E97F7D" transform="translate(142,159)"/>
<path d="M0 0 C2.203125 1.140625 2.203125 1.140625 4 3 C4.42578125 5.84765625 4.42578125 5.84765625 4.3125 9.0625 C4.28800781 10.12597656 4.26351562 11.18945312 4.23828125 12.28515625 C4 15 4 15 3 17 C1.0390625 17.44921875 1.0390625 17.44921875 -1.375 17.6875 C-2.16648438 17.77386719 -2.95796875 17.86023438 -3.7734375 17.94921875 C-6 18 -6 18 -9 17 C-10.06987652 13.79037044 -10.20081156 11.31100738 -10.25 7.9375 C-10.27578125 6.87402344 -10.3015625 5.81054688 -10.328125 4.71484375 C-10.21984375 3.81894531 -10.1115625 2.92304687 -10 2 C-6.28986601 -0.47342266 -4.38939738 -0.38503486 0 0 Z " fill="#DDDFDE" transform="translate(213,48)"/>
<path d="M0 0 C1.2065625 0.0309375 1.2065625 0.0309375 2.4375 0.0625 C2.4621501 5.17113896 2.48033607 10.27974359 2.49243164 15.38842773 C2.49747204 17.12769168 2.5043043 18.86695136 2.51293945 20.60620117 C2.52501792 23.10075937 2.53073108 25.59526173 2.53515625 28.08984375 C2.54031754 28.87213852 2.54547882 29.65443329 2.55079651 30.46043396 C2.55099226 32.32817114 2.49949694 34.19579204 2.4375 36.0625 C1.4375 37.0625 1.4375 37.0625 -1.125 37.125 C-1.929375 37.104375 -2.73375 37.08375 -3.5625 37.0625 C-3.5871501 31.95386104 -3.60533607 26.84525641 -3.61743164 21.73657227 C-3.62247204 19.99730832 -3.6293043 18.25804864 -3.63793945 16.51879883 C-3.65001792 14.02424063 -3.65573108 11.52973827 -3.66015625 9.03515625 C-3.66531754 8.25286148 -3.67047882 7.47056671 -3.67579651 6.66456604 C-3.67599226 4.79682886 -3.62449694 2.92920796 -3.5625 1.0625 C-2.5625 0.0625 -2.5625 0.0625 0 0 Z " fill="#EE3A39" transform="translate(167.5625,176.9375)"/>
<path d="M0 0 C0.33 0 0.66 0 1 0 C0.85780436 2.20857055 0.71108153 4.41684987 0.5625 6.625 C0.48128906 7.85476562 0.40007813 9.08453125 0.31640625 10.3515625 C0 14 0 14 -0.59765625 17.3359375 C-1.25647238 19.96686057 -1.25647238 19.96686057 0 22 C-0.66 22 -1.32 22 -2 22 C-1.814375 23.2375 -1.62875 24.475 -1.4375 25.75 C-0.86721575 29.551895 -0.86721575 29.551895 -1.48413086 31.63378906 C-2.23427999 35.07460562 -2.14204655 38.49578614 -2.1328125 42 C-2.13426773 42.78437439 -2.13572296 43.56874878 -2.13722229 44.37689209 C-2.13946374 46.91797724 -2.13320914 49.45892829 -2.125 52 C-2.12311676 52.86081177 -2.12123352 53.72162354 -2.11929321 54.60852051 C-3.07166103 77.78259017 -3.07166103 77.78259017 1.4765625 100.125 C2.11540855 102.41340377 1.74473648 103.77572037 1 106 C-10.57213001 80.38402289 -10.19677555 28.39859686 -0.8984375 1.85546875 C-0.60195313 1.24316406 -0.30546875 0.63085938 0 0 Z " fill="#C73E3E" transform="translate(42,136)"/>
<path d="M0 0 C0.99 0.33 1.98 0.66 3 1 C3.33 1.99 3.66 2.98 4 4 C7.00007271 5.70855022 7.00007271 5.70855022 10 7 C10 7.66 10 8.32 10 9 C10.99 8.67 11.98 8.34 13 8 C13 8.66 13 9.32 13 10 C14.7015625 9.98259766 14.7015625 9.98259766 16.4375 9.96484375 C17.95833167 9.9554559 19.47916514 9.94635678 21 9.9375 C22.11568359 9.92493164 22.11568359 9.92493164 23.25390625 9.91210938 C23.99511719 9.90888672 24.73632812 9.90566406 25.5 9.90234375 C26.1703125 9.89710693 26.840625 9.89187012 27.53125 9.88647461 C30 10 30 10 33.43200684 10.5 C38.80418914 11.17982427 44.14895571 11.13193782 49.55664062 11.11352539 C50.68922302 11.11367142 51.82180542 11.11381744 52.9887085 11.1139679 C56.7112422 11.11327437 60.4337251 11.10550825 64.15625 11.09765625 C66.7455645 11.09579008 69.33487936 11.09436712 71.92419434 11.09336853 C78.02965021 11.08994784 84.13508529 11.08207608 90.24053335 11.07201904 C97.19584399 11.06081261 104.15115553 11.05533607 111.10647297 11.05032361 C125.40432498 11.03989215 139.70216185 11.02232103 154 11 C154 11.66 154 12.32 154 13 C136.42325986 13.07017838 118.84656364 13.12303134 101.26971531 13.15543652 C93.10790375 13.17088482 84.9461794 13.19193525 76.78442383 13.22631836 C69.66804139 13.25628325 62.55172213 13.2755898 55.43527836 13.28226548 C51.66951131 13.28616578 47.90392497 13.29528916 44.13821602 13.31719017 C40.58826569 13.33766759 37.03856923 13.34381129 33.48856544 13.33932304 C31.57585016 13.34053208 29.66316204 13.35661503 27.7505188 13.3732605 C18.12233186 13.33893295 9.16905503 11.98575533 2 5 C0.5625 2.1875 0.5625 2.1875 0 0 Z " fill="#CA2E2B" transform="translate(45,243)"/>
<path d="M0 0 C2.31243792 -0.02685412 4.6249627 -0.04632841 6.9375 -0.0625 C8.22527344 -0.07410156 9.51304687 -0.08570313 10.83984375 -0.09765625 C14 0 14 0 15 1 C15.21208482 3.44192101 15.37641051 5.86588578 15.5 8.3125 C15.76125264 14.22815326 15.76125264 14.22815326 17 20 C18.32 19.67 19.64 19.34 21 19 C21.33 19.66 21.66 20.32 22 21 C22.99 20.34 23.98 19.68 25 19 C25.33 19.99 25.66 20.98 26 22 C26.886875 21.87625 27.77375 21.7525 28.6875 21.625 C32 22 32 22 34.875 24.6875 C36.98118117 27.97066476 37.55447997 29.22953618 37 33 C36.731875 32.4225 36.46375 31.845 36.1875 31.25 C34.23056191 27.5421173 33.07061787 25.35687262 29 24 C21.33133092 22.92638633 20.4340482 25.04396786 13 30 C13 20.43 13 10.86 13 1 C9.04 1 5.08 1 1 1 C1 14.2 1 27.4 1 41 C0.67 41 0.34 41 0 41 C-0.16921214 36.60777457 -0.32957927 32.21533642 -0.48217773 27.82250977 C-0.53515628 26.33186412 -0.59044367 24.8412985 -0.64819336 23.35083008 C-0.95152226 15.4827421 -1.18964837 7.8164304 0 0 Z " fill="#E25D5A" transform="translate(148,141)"/>
<path d="M0 0 C3.63 0 7.26 0 11 0 C11 21.78 11 43.56 11 66 C7.37 66 3.74 66 0 66 C0 64.02 0 62.04 0 60 C-1.65 60.99 -3.3 61.98 -5 63 C-4.67 61.68 -4.34 60.36 -4 59 C-6.31 58.67 -8.62 58.34 -11 58 C-10.67 57.34 -10.34 56.68 -10 56 C-9.236875 55.855625 -8.47375 55.71125 -7.6875 55.5625 C-4.60975121 54.91832002 -3.26405789 54.16496139 -1 52 C-0.38437261 49.61156655 -0.38437261 49.61156655 -0.45410156 46.88598633 C-0.43438293 45.84513382 -0.41466431 44.80428131 -0.39434814 43.73188782 C-0.39311951 42.60993515 -0.39189087 41.48798248 -0.390625 40.33203125 C-0.37408875 39.18208176 -0.35755249 38.03213226 -0.34051514 36.84733582 C-0.2918718 33.16900377 -0.27062713 29.49108562 -0.25 25.8125 C-0.22185412 23.32094253 -0.19192866 20.82940449 -0.16015625 18.33789062 C-0.08610792 12.22529446 -0.03663274 6.1129303 0 0 Z M1 2 C0.98786972 2.94174324 0.98786972 2.94174324 0.97549438 3.9025116 C0.889401 10.44017711 0.789895 16.97754108 0.68261719 23.51489258 C0.64434698 25.95429417 0.6094907 28.39375182 0.578125 30.83325195 C0.53243255 34.34086127 0.47444395 37.84808534 0.4140625 41.35546875 C0.40251129 42.44522507 0.39096008 43.53498138 0.37905884 44.65776062 C0.35918915 45.67844131 0.33931946 46.69912201 0.31884766 47.75073242 C0.29886215 49.09309212 0.29886215 49.09309212 0.2784729 50.46257019 C-0.02861441 53.26073292 -0.84655897 55.44387913 -2 58 C-1.01 58.33 -0.02 58.66 1 59 C1 60.98 1 62.96 1 65 C3.97 65 6.94 65 10 65 C10 44.21 10 23.42 10 2 C7.03 2 4.06 2 1 2 Z " fill="#FEE8E6" transform="translate(126,165)"/>
<path d="M0 0 C0.99 0.33 1.98 0.66 3 1 C5.39490986 1.06970052 7.79167691 1.08448003 10.1875 1.0625 C11.45980469 1.05347656 12.73210937 1.04445312 14.04296875 1.03515625 C15.01878906 1.02355469 15.99460937 1.01195312 17 1 C17 1.99 17 2.98 17 4 C16.01 4.495 16.01 4.495 15 5 C15.00580078 5.92876953 15.01160156 6.85753906 15.01757812 7.81445312 C15.05515847 18.71812313 14.81909354 29.60156354 14.5 40.5 C14.45161732 42.20962961 14.40343921 43.91926502 14.35546875 45.62890625 C14.23932639 49.75267455 14.1204545 53.8763555 14 58 C13.67 58 13.34 58 13 58 C13 40.18 13 22.36 13 4 C9.04 4 5.08 4 1 4 C1.02320312 5.63710937 1.04640625 7.27421875 1.0703125 8.9609375 C1.08906703 11.09895379 1.10726757 13.23697499 1.125 15.375 C1.14175781 16.45523438 1.15851563 17.53546875 1.17578125 18.6484375 C1.18222656 19.6796875 1.18867187 20.7109375 1.1953125 21.7734375 C1.20578613 22.72653809 1.21625977 23.67963867 1.22705078 24.66162109 C1 27 1 27 -1 29 C-2.20772935 24.69494181 -2.18388989 20.63154162 -2.1875 16.1875 C-2.19974609 15.40568359 -2.21199219 14.62386719 -2.22460938 13.81835938 C-2.23712576 8.82432178 -1.59922322 4.73445926 0 0 Z " fill="#DE5756" transform="translate(101,161)"/>
<path d="M0 0 C1.051875 0.01160156 1.051875 0.01160156 2.125 0.0234375 C2.82625 0.01570312 3.5275 0.00796875 4.25 0 C6.125 0.3984375 6.125 0.3984375 8.125 3.3984375 C8.39374159 7.41343681 8.21163712 11.36981157 8.125 15.3984375 C4.165 15.3984375 0.205 15.3984375 -3.875 15.3984375 C-4.18701499 0.88974068 -4.18701499 0.88974068 0 0 Z " fill="#D43A39" transform="translate(211.875,174.6015625)"/>
<path d="M0 0 C0.33 0 0.66 0 1 0 C1.04644315 7.32822424 1.08192987 14.65641649 1.10362434 21.98475838 C1.11403924 25.38800397 1.12815619 28.7911485 1.15087891 32.19433594 C1.176867 36.11131561 1.18649178 40.02825507 1.1953125 43.9453125 C1.20563507 45.16115021 1.21595764 46.37698792 1.22659302 47.62966919 C1.22674408 48.77039886 1.22689514 49.91112854 1.22705078 51.08642578 C1.231492 52.08570099 1.23593323 53.0849762 1.24050903 54.11453247 C0.97241398 57.33095879 0.09332763 59.97370976 -1 63 C-1.103125 63.804375 -1.20625 64.60875 -1.3125 65.4375 C-2.32697443 69.21872286 -4.61432042 71.94527375 -7 75 C-6.34 75 -5.68 75 -5 75 C-5 76.32 -5 77.64 -5 79 C-6.41543415 79.19658808 -7.83244031 79.38187546 -9.25 79.5625 C-10.43335938 79.71912109 -10.43335938 79.71912109 -11.640625 79.87890625 C-14.00532874 80.00027349 -15.7511037 79.69633257 -18 79 C-17.23816406 78.54173828 -17.23816406 78.54173828 -16.4609375 78.07421875 C-9.65047784 73.54666598 -5.44187268 68.03251852 -3.51411438 59.96714783 C-3.07977478 57.64744253 -2.71254226 55.32796317 -2.375 52.9921875 C-2.1841407 51.69078827 -2.1841407 51.69078827 -1.98942566 50.36309814 C-0.60611082 40.18405541 -0.43695798 30.00748685 -0.3125 19.75 C-0.27920107 17.81768717 -0.2447007 15.88539466 -0.20898438 13.953125 C-0.1255557 9.30219937 -0.05809321 4.65130819 0 0 Z " fill="#DCCBCB" transform="translate(251,174)"/>
<path d="M0 0 C14.52 0 29.04 0 44 0 C45.87912469 4.69781173 46.22365258 6.92919738 46.125 11.8125 C46.10695312 12.97394531 46.08890625 14.13539063 46.0703125 15.33203125 C46.04710937 16.21246094 46.02390625 17.09289062 46 18 C43.03 18.495 43.03 18.495 40 19 C39.34 17.68 38.68 16.36 38 15 C35.69 15.99 33.38 16.98 31 18 C31 19.65 31 21.3 31 23 C30.34 23 29.68 23 29 23 C29 26.3 29 29.6 29 33 C28.67 33 28.34 33 28 33 C28 26.4 28 19.8 28 13 C32.95 13 37.9 13 43 13 C43 9.04 43 5.08 43 1 C28.81 1 14.62 1 0 1 C0 0.67 0 0.34 0 0 Z " fill="#E65955" transform="translate(57,141)"/>
<path d="M0 0 C3.63 0 7.26 0 11 0 C10.34 1.32 9.68 2.64 9 4 C7.99740493 7.00778521 7.69685358 9.53820647 7.4375 12.6875 C7.35371094 13.68136719 7.26992187 14.67523438 7.18359375 15.69921875 C7.12300781 16.45847656 7.06242188 17.21773437 7 18 C5.02 18 3.04 18 1 18 C1 17.34 1 16.68 1 16 C0.34 16 -0.32 16 -1 16 C-2.28613129 12.14160613 -2.46346074 8.02189655 -2 4 C-1.34 2.68 -0.68 1.36 0 0 Z " fill="#D92A2B" transform="translate(211,203)"/>
<path d="M0 0 C2.49370127 1.15093905 4.60875485 2.42348164 6.875 4 C9.89628671 5.93362349 12.56787452 7.01939272 16 8 C14 11 14 11 11.8125 11.75 C8.41141098 12.05231902 5.36868909 11.49906505 2 11 C1.01 11.33 0.02 11.66 -1 12 C-4.74791608 12 -8.38751689 10.9365697 -12 10 C-12.33 8.68 -12.66 7.36 -13 6 C-8.71 6 -4.42 6 0 6 C0 4.02 0 2.04 0 0 Z " fill="#DA2A2B" transform="translate(161,226)"/>
<path d="M0 0 C0.33 0 0.66 0 1 0 C1.02505615 1.13542236 1.0501123 2.27084473 1.07592773 3.44067383 C1.17005576 7.65075081 1.27026337 11.86066488 1.37231445 16.07055664 C1.41564287 17.89310904 1.45731947 19.71570148 1.49731445 21.53833008 C1.55506762 24.15718661 1.61874756 26.77584195 1.68359375 29.39453125 C1.70030624 30.21025101 1.71701874 31.02597076 1.73423767 31.8664093 C1.82013245 35.14179544 1.95752134 37.87256401 3 41 C1 44 1 44 -0.8125 44.8125 C-3.65011917 45.0557245 -5.45522836 44.20169772 -8 43 C-7.67 44.32 -7.34 45.64 -7 47 C-8.485 47.495 -8.485 47.495 -10 48 C-10.66 46.68 -11.32 45.36 -12 44 C-12.66 44 -13.32 44 -14 44 C-14.66 43.01 -15.32 42.02 -16 41 C-19.465 41.495 -19.465 41.495 -23 42 C-22.01 41.34 -21.02 40.68 -20 40 C-18.97034205 39.13540172 -17.9495124 38.26018732 -16.9375 37.375 C-14 35 -14 35 -12 35 C-12 37.31 -12 39.62 -12 42 C-8.04 42 -4.08 42 0 42 C0 28.14 0 14.28 0 0 Z " fill="#CD312E" transform="translate(138,190)"/>
<path d="M0 0 C4.62 0 9.24 0 14 0 C14 25.74 14 51.48 14 78 C13.34 78 12.68 78 12 78 C12.33 74.7 12.66 71.4 13 68 C12.34 68 11.68 68 11 68 C11.06566162 67.15244141 11.13132324 66.30488281 11.19897461 65.43164062 C12.1355722 52.13178281 12.33495274 38.82776825 12.5625 25.5 C12.60579752 23.11587954 12.64941493 20.73176487 12.69335938 18.34765625 C12.79925746 12.56516421 12.90083855 6.78261133 13 1 C8.71 1 4.42 1 0 1 C0 0.67 0 0.34 0 0 Z " fill="#C33C39" transform="translate(57,154)"/>
<path d="M0 0 C1.65 0.33 3.3 0.66 5 1 C4.53851563 2.22589844 4.07703125 3.45179688 3.6015625 4.71484375 C1.65166626 10.57026071 1.01682533 16.44692569 0.375 22.5625 C0.13282625 24.73047029 -0.10936094 26.89843907 -0.3515625 29.06640625 C-0.45291504 30.01459229 -0.55426758 30.96277832 -0.65869141 31.93969727 C-0.91724993 34.25803142 -1.21080605 36.57249655 -1.52075195 38.88452148 C-2.01986244 42.84941922 -2.20361329 46.78515638 -2.31640625 50.78125 C-2.33718735 51.48020386 -2.35796844 52.17915771 -2.37937927 52.89929199 C-2.44398535 55.09944259 -2.50333909 57.29969696 -2.5625 59.5 C-2.60577017 61.00521842 -2.64938693 62.51042693 -2.69335938 64.015625 C-2.79957319 67.67697744 -2.90108196 71.33844234 -3 75 C-3.33 75 -3.66 75 -4 75 C-4.0248905 69.20166326 -4.04294954 63.40335828 -4.05493164 57.60498047 C-4.05993176 55.63622495 -4.06673402 53.66747309 -4.07543945 51.69873047 C-4.08769573 48.85383191 -4.09327167 46.00898283 -4.09765625 43.1640625 C-4.10281754 42.29697662 -4.10797882 41.42989075 -4.11329651 40.53652954 C-4.11467271 25.22934542 -4.11467271 25.22934542 -2 21 C-1.79777644 19.33727297 -1.63588613 17.66945815 -1.5 16 C-1.11111111 11.22222222 -1.11111111 11.22222222 0 9 C0.06950541 7.45976004 0.08452357 5.91665012 0.0625 4.375 C0.05347656 3.55773437 0.04445313 2.74046875 0.03515625 1.8984375 C0.02355469 1.27195313 0.01195312 0.64546875 0 0 Z " fill="#E8D7D6" transform="translate(39,131)"/>
<path d="M0 0 C0.33 0 0.66 0 1 0 C1 7.92 1 15.84 1 24 C1.99 24 2.98 24 4 24 C3.03023256 29.49534884 2.13250926 33.6741355 -1.5625 38 C-5.32079615 40.18664504 -5.87159986 40.20144397 -9.875 39.3125 C-11.25881839 38.90374836 -12.63761228 38.47532194 -14 38 C-14 36.66666667 -14 35.33333333 -14 34 C-9.38 34 -4.76 34 0 34 C0 22.78 0 11.56 0 0 Z " fill="#BA2C2A" transform="translate(85,198)"/>
<path d="M0 0 C1.8871875 0.0309375 1.8871875 0.0309375 3.8125 0.0625 C4.1425 1.0525 4.4725 2.0425 4.8125 3.0625 C5.4725 3.0625 6.1325 3.0625 6.8125 3.0625 C6.4825 8.0125 6.1525 12.9625 5.8125 18.0625 C2.40362017 18.91471996 0.00815369 19.17033755 -3.4375 19.125 C-4.32953125 19.11597656 -5.2215625 19.10695312 -6.140625 19.09765625 C-6.81609375 19.08605469 -7.4915625 19.07445312 -8.1875 19.0625 C-9.62957941 16.17834117 -9.28144887 13.64528472 -9.25 10.4375 C-9.24097656 9.24898437 -9.23195312 8.06046875 -9.22265625 6.8359375 C-9.21105469 5.92070312 -9.19945312 5.00546875 -9.1875 4.0625 C-8.5275 4.0625 -7.8675 4.0625 -7.1875 4.0625 C-7.1875 3.0725 -7.1875 2.0825 -7.1875 1.0625 C-4.43671116 0.14557039 -2.82801087 -0.04636083 0 0 Z M-7.1875 5.0625 C-7.42969315 8.03699608 -7.42969315 8.03699608 -7.3125 11.25 C-7.27125 13.168125 -7.23 15.08625 -7.1875 17.0625 C-3.2275 17.0625 0.7325 17.0625 4.8125 17.0625 C4.85375 15.144375 4.895 13.22625 4.9375 11.25 C4.96070313 10.17105469 4.98390625 9.09210938 5.0078125 7.98046875 C5.04273717 4.86847132 5.04273717 4.86847132 2.8125 2.0625 C0.910506 1.58691794 0.910506 1.58691794 -1.1875 1.6875 C-2.239375 1.67589844 -2.239375 1.67589844 -3.3125 1.6640625 C-5.59808594 1.921586 -5.59808594 1.921586 -7.1875 5.0625 Z " fill="#FAD0CE" transform="translate(215.1875,172.9375)"/>
<path d="M0 0 C0.33 0 0.66 0 1 0 C1.12668307 7.47458825 1.2143025 14.94890015 1.2746582 22.42431641 C1.29981627 24.96771592 1.33394631 27.51104304 1.37719727 30.05419922 C1.43778821 33.70818938 1.46619767 37.36122451 1.48828125 41.015625 C1.51408768 42.15429016 1.5398941 43.29295532 1.56648254 44.46612549 C1.5692638 52.27841036 1.5692638 52.27841036 -1.21801758 55.81152344 C-4 57 -4 57 -9 56 C-9 48.41 -9 40.82 -9 33 C-8.67 33 -8.34 33 -8 33 C-7.67 39.93 -7.34 46.86 -7 54 C-4.03 53.505 -4.03 53.505 -1 53 C-0.67 35.51 -0.34 18.02 0 0 Z " fill="#CB413D" transform="translate(124,165)"/>
<path d="M0 0 C0.66 0 1.32 0 2 0 C2.33 13.53 2.66 27.06 3 41 C4.98 41.66 6.96 42.32 9 43 C7.68 43.66 6.36 44.32 5 45 C4.67 44.34 4.34 43.68 4 43 C2.68 42.67 1.36 42.34 0 42 C0 28.14 0 14.28 0 0 Z " fill="#FED4D4" transform="translate(160,178)"/>
<path d="M0 0 C0.33 0 0.66 0 1 0 C1.37365087 39.41154388 1.37365087 39.41154388 -5 51 C-5.33 51 -5.66 51 -6 51 C-6 49.35 -6 47.7 -6 46 C-5.34 46 -4.68 46 -4 46 C-4.20625 44.88625 -4.4125 43.7725 -4.625 42.625 C-4.74875 41.42875 -4.8725 40.2325 -5 39 C-4.34 38.34 -3.68 37.68 -3 37 C-2.05112535 31.02208971 -1.92818014 25.23189385 -2.0625 19.1875 C-2 17 -2 17 -1 16 C-0.9271286 12.98950039 -1.00382803 9.99107437 -1.0625 6.98046875 C-1.00901039 4.4296832 -0.74983237 2.419381 0 0 Z " fill="#CA2C2B" transform="translate(249,193)"/>
<path d="M0 0 C0.66 0 1.32 0 2 0 C4.2971253 4.5040904 4.17889065 8.6582173 3.9765625 13.58203125 C3.95153656 14.39621017 3.92651062 15.2103891 3.90072632 16.04924011 C3.81886898 18.63743873 3.72214866 21.22483471 3.625 23.8125 C3.56672532 25.57223335 3.50942282 27.33199917 3.453125 29.09179688 C3.31334158 33.39498889 3.16023062 37.69752279 3 42 C1.515 42.495 1.515 42.495 0 43 C0 28.81 0 14.62 0 0 Z " fill="#FED2D2" transform="translate(171,177)"/>
<path d="M0 0 C3.3 0 6.6 0 10 0 C10 0.66 10 1.32 10 2 C7.03 1.67 4.06 1.34 1 1 C1.10760411 8.62364841 1.22025824 16.24720804 1.33933926 23.87068558 C1.39447655 27.41066693 1.44788161 30.95065668 1.49731445 34.49072266 C1.55423585 38.56161313 1.61871557 42.6323535 1.68359375 46.703125 C1.70030624 47.97303284 1.71701874 49.24294067 1.73423767 50.55133057 C1.75418289 51.73225281 1.77412811 52.91317505 1.79467773 54.12988281 C1.81022202 55.16912903 1.8257663 56.20837524 1.84178162 57.27911377 C1.98093589 59.67215397 2.31731107 61.71144075 3 64 C2.01 63.34 1.02 62.68 0 62 C-0.36076355 59.4057312 -0.36076355 59.4057312 -0.34057617 56.08154297 C-0.34034958 54.84040741 -0.34012299 53.59927185 -0.33988953 52.32052612 C-0.32456848 50.96107628 -0.30892047 49.60163009 -0.29296875 48.2421875 C-0.28737427 46.8549953 -0.28310347 45.46779717 -0.28010559 44.08059692 C-0.26864497 40.42750719 -0.23916786 36.77477466 -0.20599365 33.12182617 C-0.17531867 29.39506869 -0.16160579 25.66825355 -0.14648438 21.94140625 C-0.11429886 14.62744123 -0.06308839 7.31377064 0 0 Z " fill="#FFEEEC" transform="translate(103,166)"/>
<path d="M0 0 C0.66 0 1.32 0 2 0 C1.98259766 1.70542969 1.98259766 1.70542969 1.96484375 3.4453125 C1.90502701 12.18140492 2.0712049 20.76743063 2.87890625 29.47265625 C2.91886719 30.30667969 2.95882812 31.14070313 3 32 C2.505 32.495 2.505 32.495 2 33 C2.020625 34.11375 2.04125 35.2275 2.0625 36.375 C2 40 2 40 0 43 C0 28.81 0 14.62 0 0 Z " fill="#EED5D6" transform="translate(252,174)"/>
<path d="M0 0 C-0.33 0.99 -0.66 1.98 -1 3 C-7.83417448 3.89087795 -14.49158449 4.13308006 -21.37890625 4.09765625 C-22.43158188 4.0962413 -23.48425751 4.09482635 -24.5688324 4.09336853 C-27.90008499 4.08781296 -31.23126804 4.07526888 -34.5625 4.0625 C-36.8339834 4.05747925 -39.10546786 4.05291735 -41.37695312 4.04882812 C-46.9179921 4.03785812 -52.45899108 4.02116483 -58 4 C-58 3.67 -58 3.34 -58 3 C-57.38247864 2.97716446 -56.76495728 2.95432892 -56.12872314 2.93080139 C-49.70475735 2.69241867 -43.28103482 2.44814453 -36.85742188 2.20043945 C-34.45969284 2.10875585 -32.06190577 2.0185774 -29.6640625 1.92993164 C-26.21858637 1.802295 -22.77335485 1.66925682 -19.328125 1.53515625 C-18.25508118 1.49656998 -17.18203735 1.4579837 -16.07647705 1.41822815 C-15.07574158 1.37826218 -14.0750061 1.3382962 -13.04394531 1.29711914 C-12.16458313 1.26380997 -11.28522095 1.23050079 -10.37921143 1.19618225 C-8.03220942 1.06773307 -8.03220942 1.06773307 -5.93475342 0.48143005 C-4 0 -4 0 0 0 Z " fill="#EDBBBB" transform="translate(233,254)"/>
<path d="M0 0 C0.33 0 0.66 0 1 0 C1.07631204 7.25904578 1.12870984 14.51798737 1.16479492 21.77734375 C1.17984452 24.24483099 1.2002889 26.71229165 1.22631836 29.1796875 C1.26286926 32.73444191 1.27976518 36.28884139 1.29296875 39.84375 C1.30845261 40.93989624 1.32393646 42.03604248 1.33988953 43.16540527 C1.34127107 49.50922741 0.64530571 54.21510999 -2 60 C-3.03964735 56.33581525 -2.78589939 53.88765928 -2.1015625 50.1171875 C-0.56508415 40.15719255 -0.53904638 30.18480247 -0.375 20.125 C-0.33672177 18.16534911 -0.29766474 16.20571327 -0.2578125 14.24609375 C-0.16290975 9.49752132 -0.07849901 4.74887076 0 0 Z " fill="#ECB2B4" transform="translate(251,174)"/>
<path d="M0 0 C0.99 0.33 1.98 0.66 3 1 C3.33 1.99 3.66 2.98 4 4 C7.00007271 5.70855022 7.00007271 5.70855022 10 7 C10 7.66 10 8.32 10 9 C10.99 8.67 11.98 8.34 13 8 C13 8.66 13 9.32 13 10 C14.77117188 9.94779297 14.77117188 9.94779297 16.578125 9.89453125 C18.13540242 9.86638768 19.69269525 9.83908813 21.25 9.8125 C22.02730469 9.78736328 22.80460937 9.76222656 23.60546875 9.73632812 C29.42997175 9.66165501 29.42997175 9.66165501 32.546875 11.51171875 C33.02640625 12.00285156 33.5059375 12.49398437 34 13 C22.56708201 13.37875925 12.88499711 13.58241099 3.375 6.33984375 C1.45880193 4.47263938 0.65981892 2.56596248 0 0 Z " fill="#C94443" transform="translate(45,243)"/>
<path d="M0 0 C0.33 0 0.66 0 1 0 C1.02505615 0.86463867 1.0501123 1.72927734 1.07592773 2.62011719 C1.55819768 19.08947173 2.07064605 35.54845778 3 52 C2.67 50.68 2.34 49.36 2 48 C1.34 48 0.68 48 0 48 C0 32.16 0 16.32 0 0 Z " fill="#F3BEBD" transform="translate(36,174)"/>
<path d="M0 0 C0.33 0 0.66 0 1 0 C1.05067075 7.61715864 1.08572127 15.23427387 1.10986328 22.8515625 C1.11992668 25.4433759 1.13357864 28.03517793 1.15087891 30.62695312 C1.17511195 34.35028894 1.18647974 38.07347477 1.1953125 41.796875 C1.20563507 42.95741394 1.21595764 44.11795288 1.22659302 45.31365967 C1.22674408 46.39447815 1.22689514 47.47529663 1.22705078 48.58886719 C1.231492 49.53928894 1.23593323 50.48971069 1.24050903 51.46893311 C0.98989712 54.10632058 0.34166934 55.73831339 -1 58 C-1.99 57.67 -2.98 57.34 -4 57 C-3.5155542 56.08468506 -3.0311084 55.16937012 -2.53198242 54.22631836 C-0.33755564 49.07524793 -0.5216496 43.90151308 -0.48828125 38.37890625 C-0.47033005 37.27900864 -0.45237885 36.17911102 -0.43388367 35.04588318 C-0.37993511 31.55146048 -0.34593379 28.05717319 -0.3125 24.5625 C-0.27931337 22.1855281 -0.24482248 19.80857403 -0.20898438 17.43164062 C-0.12421748 11.6212152 -0.05580234 5.81077192 0 0 Z " fill="#CA4E48" transform="translate(185,172)"/>
<path d="M0 0 C0.33 0 0.66 0 1 0 C1.33 5.94 1.66 11.88 2 18 C2.99 18 3.98 18 5 18 C5.1953125 20.05078125 5.390625 22.1015625 5.5859375 24.15234375 C5.72257812 24.76207031 5.85921875 25.37179688 6 26 C6.66 26.33 7.32 26.66 8 27 C8 27.99 8 28.98 8 30 C6.68 30.33 5.36 30.66 4 31 C0.57828433 20.36824059 -0.52608086 11.12076477 0 0 Z " fill="#D22D29" transform="translate(40,212)"/>
<path d="M0 0 C0.33 1.32 0.66 2.64 1 4 C-2.07692746 6.6815279 -4.19734663 7.42087807 -8.25 7.6875 C-9.14203125 7.75324219 -10.0340625 7.81898438 -10.953125 7.88671875 C-11.62859375 7.92410156 -12.3040625 7.96148437 -13 8 C-13 6.35 -13 4.7 -13 3 C-8.71 2.01 -4.42 1.02 0 0 Z " fill="#D72929" transform="translate(122,230)"/>
<path d="M0 0 C1.5625 1.25 1.5625 1.25 3 3 C3 5 3 5 2 7 C-0.25 8.5625 -0.25 8.5625 -3 10 C-3.928125 10.556875 -4.85625 11.11375 -5.8125 11.6875 C-6.534375 12.120625 -7.25625 12.55375 -8 13 C-8.33 12.34 -8.66 11.68 -9 11 C-8.34 10.67 -7.68 10.34 -7 10 C-6.34444881 7.47266765 -6.34444881 7.47266765 -6 5 C-5.01 4.67 -4.02 4.34 -3 4 C-1.31461399 2.00334686 -1.31461399 2.00334686 0 0 Z " fill="#D82C27" transform="translate(187,225)"/>
<path d="M0 0 C1.65 0.33 3.3 0.66 5 1 C4.53980469 2.21558594 4.07960938 3.43117187 3.60546875 4.68359375 C1.59975475 10.70073575 0.97603092 16.77889844 0.3125 23.0625 C0.18294922 24.21427734 0.05339844 25.36605469 -0.08007812 26.55273438 C-0.39544162 29.36764556 -0.70186559 32.18322099 -1 35 C-1.33 35 -1.66 35 -2 35 C-2.27808989 13.55617978 -2.27808989 13.55617978 0 9 C0.06950541 7.45976004 0.08452357 5.91665012 0.0625 4.375 C0.04896484 3.14910156 0.04896484 3.14910156 0.03515625 1.8984375 C0.02355469 1.27195313 0.01195312 0.64546875 0 0 Z " fill="#F3CBCA" transform="translate(39,131)"/>
<path d="M0 0 C3.96 0 7.92 0 12 0 C12.25 10.625 12.25 10.625 10 14 C10.01160156 13.28972656 10.02320313 12.57945312 10.03515625 11.84765625 C10.04417969 10.92855469 10.05320313 10.00945312 10.0625 9.0625 C10.07410156 8.14597656 10.08570313 7.22945312 10.09765625 6.28515625 C10.25949049 4.03406673 10.25949049 4.03406673 9 3 C6.67182036 2.63239269 4.3381615 2.29758419 2 2 C1.67 3.98 1.34 5.96 1 8 C0.67 8 0.34 8 0 8 C0 5.36 0 2.72 0 0 Z " fill="#FEDBD9" transform="translate(220,209)"/>
<path d="M0 0 C3.5386994 1.65139305 4.81070153 2.71605229 7 6 C7 7.32 7 8.64 7 10 C6.34 10 5.68 10 5 10 C5 8.68 5 7.36 5 6 C4.34 6 3.68 6 3 6 C3 5.01 3 4.02 3 3 C-4.27734661 2.27780932 -4.27734661 2.27780932 -10.6875 5 C-11.120625 5.66 -11.55375 6.32 -12 7 C-12.66 6.34 -13.32 5.68 -14 5 C-9.19842014 1.08034297 -6.44276689 -0.95448398 0 0 Z " fill="#FDD8D5" transform="translate(177,164)"/>
<path d="M0 0 C2.12579013 0.05988141 4.25078413 0.14862744 6.375 0.25 C8.15003906 0.31960937 8.15003906 0.31960937 9.9609375 0.390625 C13 1 13 1 14.4140625 3.046875 C14.60742188 3.69140625 14.80078125 4.3359375 15 5 C10.06511195 6.64496268 5.92451397 5.27672584 1 4 C0.67 2.68 0.34 1.36 0 0 Z " fill="#D92B28" transform="translate(148,232)"/>
<path d="M0 0 C0.639375 0.268125 1.27875 0.53625 1.9375 0.8125 C3.4534375 1.4003125 3.4534375 1.4003125 5 2 C5.87785156 2.37898437 5.87785156 2.37898437 6.7734375 2.765625 C14.27793014 5.69841523 22.04273842 5.71685818 30 6 C30 6.33 30 6.66 30 7 C10.35078243 8.87242831 10.35078243 8.87242831 1.4375 3.4375 C0.963125 2.963125 0.48875 2.48875 0 2 C0 1.34 0 0.68 0 0 Z " fill="#EDC6C8" transform="translate(49,250)"/>
<path d="M0 0 C0.79921875 0.01804688 1.5984375 0.03609375 2.421875 0.0546875 C3.02515625 0.07789063 3.6284375 0.10109375 4.25 0.125 C4.25 0.455 4.25 0.785 4.25 1.125 C3.693125 1.18816406 3.13625 1.25132812 2.5625 1.31640625 C-3.39091182 2.27176794 -6.65522182 4.24295534 -10.92578125 8.46875 C-12.77215974 10.14511934 -14.47932072 11.12249259 -16.75 12.125 C-15.18338209 6.64183733 -11.64467703 3.85823254 -6.8515625 0.98828125 C-4.41021196 -0.01457836 -2.62748616 -0.077279 0 0 Z " fill="#FBD1CD" transform="translate(213.75,163.875)"/>
<path d="M0 0 C0.33 0 0.66 0 1 0 C1.185625 1.7015625 1.185625 1.7015625 1.375 3.4375 C1.684375 5.2009375 1.684375 5.2009375 2 7 C2.66 7.33 3.32 7.66 4 8 C4.33 7.34 4.66 6.68 5 6 C6 9 6 9 5.0625 11.1875 C4.5365625 12.0846875 4.5365625 12.0846875 4 13 C3.34 13 2.68 13 2 13 C1.01 13.99 0.02 14.98 -1 16 C-0.67 10.72 -0.34 5.44 0 0 Z " fill="#CF2C2C" transform="translate(233,208)"/>
<path d="M0 0 C5.4146739 0.43317391 8.80729382 1.48982738 13 5 C15.54782329 9.16916538 15.16077208 13.25722353 15 18 C13.7133201 15.52561558 12.67076968 13.12205249 11.6875 10.5 C9.41882409 5.7945981 6.90472133 3.84654281 2.1875 1.75 C1.465625 1.5025 0.74375 1.255 0 1 C0 0.67 0 0.34 0 0 Z " fill="#C74345" transform="translate(218,164)"/>
<path d="M0 0 C2.00720923 0.28674418 4.0085944 0.61866701 6 1 C6 1.66 6 2.32 6 3 C5.360625 3.28875 4.72125 3.5775 4.0625 3.875 C1.84793921 4.82823451 1.84793921 4.82823451 1 7 C-2.62138266 8.02273507 -6.06734756 8.10762232 -9.8125 8.0625 C-11.27623047 8.04896484 -11.27623047 8.04896484 -12.76953125 8.03515625 C-13.87361328 8.01775391 -13.87361328 8.01775391 -15 8 C-15 7.67 -15 7.34 -15 7 C-10.05 6.34 -5.1 5.68 0 5 C-0.33 3.68 -0.66 2.36 -1 1 C-0.67 0.67 -0.34 0.34 0 0 Z " fill="#D52A29" transform="translate(232,246)"/>
<path d="M0 0 C-1.05875074 3.40312738 -2.00902154 6.01353231 -4 9 C-5.32 9 -6.64 9 -8 9 C-8 9.99 -8 10.98 -8 12 C-8.66 12 -9.32 12 -10 12 C-8.88685188 7.3247779 -5.68510408 0 0 0 Z " fill="#C8383B" transform="translate(53,124)"/>
<path d="M0 0 C0.99 0.495 0.99 0.495 2 1 C2.6875 4 2.6875 4 3 7 C2.67 7.33 2.34 7.66 2 8 C1.78673597 13.6047709 1.78673597 13.6047709 3 19 C2.40206327 21.35188447 1.74118205 23.68925595 1 26 C0.67 26 0.34 26 0 26 C0 17.42 0 8.84 0 0 Z " fill="#CA2B2B" transform="translate(233,174)"/>
<path d="M0 0 C0.66 0 1.32 0 2 0 C3.38489368 4.95484183 2.89120615 9.74589148 2.5625 14.8125 C2.51029297 15.69615234 2.45808594 16.57980469 2.40429688 17.49023438 C2.27525381 19.66050408 2.13840044 21.83030693 2 24 C1.67 24 1.34 24 1 24 C-0.32915021 16.02509872 -0.08801359 8.05813281 0 0 Z " fill="#E54642" transform="translate(138,174)"/>
<path d="M0 0 C2.31 0 4.62 0 7 0 C6.46375 0.391875 5.9275 0.78375 5.375 1.1875 C-0.94432353 5.96808229 -0.94432353 5.96808229 -6 12 C-6.1875 8.625 -6.1875 8.625 -6 5 C-3 3 -3 3 0 3 C0 2.01 0 1.02 0 0 Z " fill="#DB4C4B" transform="translate(202,164)"/>
<path d="M0 0 C2.3828125 -0.29296875 2.3828125 -0.29296875 5.125 -0.1875 C6.03507812 -0.16042969 6.94515625 -0.13335937 7.8828125 -0.10546875 C8.58148438 -0.07066406 9.28015625 -0.03585938 10 0 C9.67 1.32 9.34 2.64 9 4 C4.70700357 5.26264601 2.12168689 4.62950412 -2 3 C-1.34 2.01 -0.68 1.02 0 0 Z " fill="#DB2B28" transform="translate(73,233)"/>
<path d="M0 0 C2.60444348 -0.05394705 5.20776998 -0.09364469 7.8125 -0.125 C8.55048828 -0.14175781 9.28847656 -0.15851563 10.04882812 -0.17578125 C13.91246426 -0.21074628 15.70903668 -0.19397555 19 2 C12.5510809 3.31909709 6.51244208 2.69508823 0 2 C0 1.34 0 0.68 0 0 Z " fill="#F0BDC0" transform="translate(95,257)"/>
<path d="M0 0 C2.3150939 2.3150939 2.64760994 3.75265814 3.5 6.875 C4.39455403 10.13234348 5.39402009 13.02339931 7 16 C6.01 16.33 5.02 16.66 4 17 C3.87625 16.360625 3.7525 15.72125 3.625 15.0625 C3.41875 14.381875 3.2125 13.70125 3 13 C2.34 12.67 1.68 12.34 1 12 C0.03929566 9.11788698 -0.10581883 7.30149956 -0.0625 4.3125 C-0.05347656 3.50425781 -0.04445312 2.69601563 -0.03515625 1.86328125 C-0.02355469 1.24839844 -0.01195312 0.63351563 0 0 Z " fill="#E7C0C4" transform="translate(39,230)"/>
<path d="M0 0 C0.66 0 1.32 0 2 0 C1.69343615 6.62177926 0.25711277 11.22125154 -3 17 C-3.33 17 -3.66 17 -4 17 C-4 15.35 -4 13.7 -4 12 C-3.34 12 -2.68 12 -2 12 C-2.20625 10.88625 -2.4125 9.7725 -2.625 8.625 C-2.74875 7.42875 -2.8725 6.2325 -3 5 C-2.34 4.34 -1.68 3.68 -1 3 C-0.67 2.01 -0.34 1.02 0 0 Z " fill="#C33C38" transform="translate(247,227)"/>
<path d="M0 0 C0.66 0.33 1.32 0.66 2 1 C2 1.66 2 2.32 2 3 C2.886875 2.87625 3.77375 2.7525 4.6875 2.625 C8 3 8 3 10.875 5.6875 C12.98118117 8.97066476 13.55447997 10.22953618 13 14 C12.731875 13.4225 12.46375 12.845 12.1875 12.25 C10.23056191 8.5421173 9.07061787 6.35687262 5 5 C3.43881572 4.93259135 1.8749748 4.91485544 0.3125 4.9375 C-0.49574219 4.94652344 -1.30398437 4.95554688 -2.13671875 4.96484375 C-2.75160156 4.97644531 -3.36648437 4.98804688 -4 5 C-3.67 4.34 -3.34 3.68 -3 3 C-2.34 3 -1.68 3 -1 3 C-0.67 2.01 -0.34 1.02 0 0 Z " fill="#E05459" transform="translate(172,160)"/>
<path d="M0 0 C0.33 0 0.66 0 1 0 C0.85860519 2.25028329 0.71171997 4.50022206 0.5625 6.75 C0.48128906 8.00296875 0.40007813 9.2559375 0.31640625 10.546875 C0.07484478 13.18317553 -0.24283934 15.48037294 -1 18 C-1.66 18 -2.32 18 -3 18 C-3.36517527 11.42684522 -2.13619737 6.20514474 0 0 Z " fill="#C54543" transform="translate(42,136)"/>
<path d="M0 0 C0.66 1.32 1.32 2.64 2 4 C3.32 3.67 4.64 3.34 6 3 C6.33 3.99 6.66 4.98 7 6 C6.01 7.485 6.01 7.485 5 9 C2.375 9.1875 2.375 9.1875 0 9 C0 6.03 0 3.06 0 0 Z " fill="#F64E47" transform="translate(163,157)"/>
<path d="M0 0 C1.32 0.66 2.64 1.32 4 2 C3.01 3.32 2.02 4.64 1 6 C1.99 6 2.98 6 4 6 C3.67 6.99 3.34 7.98 3 9 C2.01 8.67 1.02 8.34 0 8 C-1.89212737 7.77820215 -3.78884472 7.59385985 -5.6875 7.4375 C-6.68136719 7.35371094 -7.67523438 7.26992187 -8.69921875 7.18359375 C-9.83810547 7.09271484 -9.83810547 7.09271484 -11 7 C-11 6.67 -11 6.34 -11 6 C-7.37 6 -3.74 6 0 6 C0 4.02 0 2.04 0 0 Z " fill="#C53B3A" transform="translate(161,226)"/>
<path d="M0 0 C0.33 0 0.66 0 1 0 C1.05401695 2.91691525 1.09368066 5.83282724 1.125 8.75 C1.15013672 9.9875 1.15013672 9.9875 1.17578125 11.25 C1.18222656 12.04921875 1.18867188 12.8484375 1.1953125 13.671875 C1.20578613 14.4050293 1.21625977 15.13818359 1.22705078 15.89355469 C0.96777544 18.29896076 0.19225925 19.91251494 -1 22 C-1.99 21.67 -2.98 21.34 -4 21 C-3.525625 20.13375 -3.05125 19.2675 -2.5625 18.375 C-0.03434812 12.61510681 -0.24907171 6.19243805 0 0 Z " fill="#C13F3C" transform="translate(185,208)"/>
<path d="M0 0 C0.99 0.495 0.99 0.495 2 1 C2 3.31 2 5.62 2 8 C3.32 8.33 4.64 8.66 6 9 C5.67 10.32 5.34 11.64 5 13 C3.35 13.33 1.7 13.66 0 14 C0 9.38 0 4.76 0 0 Z " fill="#E13331" transform="translate(116,206)"/>
<path d="M0 0 C0.33 0 0.66 0 1 0 C1.19390729 2.31197155 1.37996367 4.6246029 1.5625 6.9375 C1.66691406 8.22527344 1.77132812 9.51304687 1.87890625 10.83984375 C1.91886719 11.88269531 1.95882812 12.92554688 2 14 C1.67 14.33 1.34 14.66 1 15 C1.020625 16.11375 1.04125 17.2275 1.0625 18.375 C1 22 1 22 -1 25 C-1.10094304 16.58807963 -1.10102642 8.35600408 0 0 Z " fill="#DDD4D4" transform="translate(253,192)"/>
<path d="M0 0 C4.84688192 0.78175515 9.3766367 2.39844278 14 4 C14 4.33 14 4.66 14 5 C10.37 5 6.74 5 3 5 C3 4.34 3 3.68 3 3 C2.01 3 1.02 3 0 3 C0 2.01 0 1.02 0 0 Z " fill="#C82D2B" transform="translate(162,229)"/>
<path d="M0 0 C0.99 0.66 1.98 1.32 3 2 C1.4114658 6.28904235 -1.43127368 8.32345526 -5 11 C-5.66 11 -6.32 11 -7 11 C-6.67 10.01 -6.34 9.02 -6 8 C-3.9375 7.3125 -3.9375 7.3125 -2 7 C-1.855625 6.401875 -1.71125 5.80375 -1.5625 5.1875 C-1.1127561 3.43849596 -0.57107659 1.71322977 0 0 Z " fill="#C23A3B" transform="translate(240,242)"/>
<path d="M0 0 C0.99 0.33 1.98 0.66 3 1 C3.92844389 5.33273814 3.92844389 8.66726186 3 13 C2.34 13 1.68 13 1 13 C0.67 8.71 0.34 4.42 0 0 Z " fill="#EA504C" transform="translate(99,141)"/>
<path d="M0 0 C1.85772162 0.08984301 3.71247985 0.24611861 5.5625 0.4375 C7.08037109 0.59025391 7.08037109 0.59025391 8.62890625 0.74609375 C9.80259766 0.87177734 9.80259766 0.87177734 11 1 C11 1.33 11 1.66 11 2 C7.7 2 4.4 2 1 2 C1 6.29 1 10.58 1 15 C0.67 15 0.34 15 0 15 C-0.19390729 12.68802845 -0.37996367 10.3753971 -0.5625 8.0625 C-0.71912109 6.13083984 -0.71912109 6.13083984 -0.87890625 4.16015625 C-0.91886719 3.11730469 -0.95882812 2.07445312 -1 1 C-0.67 0.67 -0.34 0.34 0 0 Z " fill="#D94B49" transform="translate(56,139)"/>
<path d="M0 0 C0 2.31 0 4.62 0 7 C-0.99 6.01 -1.98 5.02 -3 4 C-3.33 4.66 -3.66 5.32 -4 6 C-6.32156597 6.40729228 -8.6568787 6.74438677 -11 7 C-10.01 6.34 -9.02 5.68 -8 5 C-6.97034205 4.13540172 -5.9495124 3.26018732 -4.9375 2.375 C-2 0 -2 0 0 0 Z " fill="#BC4E4F" transform="translate(126,225)"/>
<path d="M0 0 C0.33 0 0.66 0 1 0 C1.02505615 0.58491211 1.0501123 1.16982422 1.07592773 1.77246094 C1.19222962 4.43184471 1.31480067 7.09090403 1.4375 9.75 C1.47681641 10.67039063 1.51613281 11.59078125 1.55664062 12.5390625 C1.59853516 13.42851562 1.64042969 14.31796875 1.68359375 15.234375 C1.72025146 16.05131836 1.75690918 16.86826172 1.79467773 17.70996094 C1.99134275 19.9034423 2.40300594 21.88396413 3 24 C2.01 23.34 1.02 22.68 0 22 C-0.34057617 19.75341797 -0.34057617 19.75341797 -0.29296875 16.9921875 C-0.28330078 16.00605469 -0.27363281 15.01992187 -0.26367188 14.00390625 C-0.23853516 12.97136719 -0.21339844 11.93882812 -0.1875 10.875 C-0.17396484 9.83472656 -0.16042969 8.79445312 -0.14648438 7.72265625 C-0.11105228 5.14792373 -0.06165221 2.5742167 0 0 Z " fill="#FEE4E2" transform="translate(103,206)"/>
<path d="M0 0 C1.62580966 0.11398665 3.25067157 0.24155659 4.875 0.375 C5.77992188 0.44460937 6.68484375 0.51421875 7.6171875 0.5859375 C10 1 10 1 12 3 C7.38 3.33 2.76 3.66 -2 4 C-1.34 2.68 -0.68 1.36 0 0 Z " fill="#E25957" transform="translate(125,162)"/>
<path d="M0 0 C0.99 0.33 1.98 0.66 3 1 C3.33 1.99 3.66 2.98 4 4 C4.969375 4.474375 5.93875 4.94875 6.9375 5.4375 C10.10211637 7.05210019 10.87470028 7.73663082 12 11 C7.99546349 9.62701605 5.08314867 7.91649198 2 5 C0.6875 2.25 0.6875 2.25 0 0 Z " fill="#BE3F3C" transform="translate(45,243)"/>
<path d="M0 0 C0.99 0.66 1.98 1.32 3 2 C5.32387947 2.39387788 7.65793749 2.73486085 10 3 C10 3.33 10 3.66 10 4 C6.37 4.66 2.74 5.32 -1 6 C-1.33 4.35 -1.66 2.7 -2 1 C-1.34 0.67 -0.68 0.34 0 0 Z " fill="#D53F41" transform="translate(104,229)"/>
<path d="M0 0 C0.78375 0.04125 1.5675 0.0825 2.375 0.125 C-0.43304268 3.08904505 -2.80815774 5.56999019 -6.625 7.125 C-4.07142857 0.19387755 -4.07142857 0.19387755 0 0 Z " fill="#FBE5E3" transform="translate(203.625,168.875)"/>
<path d="M0 0 C-3.42346555 3.14958831 -6.44262737 3.56179109 -11 4 C-11 3.34 -11 2.68 -11 2 C-11.66 1.67 -12.32 1.34 -13 1 C-8.62426048 0.40667939 -4.42471556 -0.13827236 0 0 Z " fill="#D6292A" transform="translate(222,233)"/>
<path d="M0 0 C0.33 0 0.66 0 1 0 C1.268125 1.216875 1.53625 2.43375 1.8125 3.6875 C2.68494361 7.22121044 3.92156939 9.9768282 6 13 C4.125 12.6875 4.125 12.6875 2 12 C-0.13586678 8.79619983 -0.23132175 7.98060033 -0.125 4.3125 C-0.10695312 3.50425781 -0.08890625 2.69601563 -0.0703125 1.86328125 C-0.04710937 1.24839844 -0.02390625 0.63351563 0 0 Z " fill="#C03E3D" transform="translate(195,214)"/>
<path d="M0 0 C1.65 0 3.3 0 5 0 C5 1.32 5 2.64 5 4 C3.02 4.33 1.04 4.66 -1 5 C-0.67 3.35 -0.34 1.7 0 0 Z " fill="#F6443D" transform="translate(165,177)"/>
<path d="M0 0 C0.66 0.99 1.32 1.98 2 3 C1.11728545 6.5308582 0.02559537 8.96160695 -2 12 C-2.66 12 -3.32 12 -4 12 C-2.66666667 8 -1.33333333 4 0 0 Z " fill="#E5CBCD" transform="translate(250,228)"/>
<path d="M0 0 C2.31 0 4.62 0 7 0 C5.7625 0.8353125 5.7625 0.8353125 4.5 1.6875 C1.7254586 3.74927133 1.7254586 3.74927133 1.6875 6.75 C1.790625 7.4925 1.89375 8.235 2 9 C1.34 9 0.68 9 0 9 C0 6.03 0 3.06 0 0 Z " fill="#EB4542" transform="translate(86,155)"/>
<path d="M0 0 C1.65 0 3.3 0 5 0 C3.68775452 3.93673644 2.08089673 6.22719294 -1 9 C-0.67 6.03 -0.34 3.06 0 0 Z " fill="#D82928" transform="translate(43,136)"/>
<path d="M0 0 C1.9375 0.625 1.9375 0.625 4 2 C4.75 5.125 4.75 5.125 5 8 C3.0625 7.375 3.0625 7.375 1 6 C0.25 2.875 0.25 2.875 0 0 Z " fill="#C83A38" transform="translate(238,126)"/>
<path d="M0 0 C0.99 0 1.98 0 3 0 C4.48320272 3.83887763 5.22419163 6.06204091 4 10 C3.32845067 8.71086513 2.66291141 7.41859796 2 6.125 C1.62875 5.40570313 1.2575 4.68640625 0.875 3.9453125 C0 2 0 2 0 0 Z " fill="#F1D6D8" transform="translate(246,135)"/>
<path d="M0 0 C2.97 0.495 2.97 0.495 6 1 C6 2.98 6 4.96 6 7 C5.01 7.495 5.01 7.495 4 8 C2.68 5.36 1.36 2.72 0 0 Z " fill="#F1D2D5" transform="translate(241,127)"/>
<path d="M0 0 C4.875 0.875 4.875 0.875 6 2 C8.32817964 2.36760731 10.6618385 2.70241581 13 3 C13 3.33 13 3.66 13 4 C4.80743982 4.63019694 4.80743982 4.63019694 1.4375 2 C0.7259375 1.01 0.7259375 1.01 0 0 Z " fill="#FBD6D1" transform="translate(165,228)"/>
<path d="M0 0 C0 1.98 0 3.96 0 6 C-1.9375 5.6875 -1.9375 5.6875 -4 5 C-4.33 4.01 -4.66 3.02 -5 2 C-1.125 0 -1.125 0 0 0 Z " fill="#E03632" transform="translate(170,213)"/>
<path d="M0 0 C0 0.66 0 1.32 0 2 C-0.66 2 -1.32 2 -2 2 C-2 3.65 -2 5.3 -2 7 C-3.32 6.34 -4.64 5.68 -6 5 C-6 4.01 -6 3.02 -6 2 C-2.25 0 -2.25 0 0 0 Z " fill="#D72B27" transform="translate(245,237)"/>
<path d="M0 0 C0.33 1.32 0.66 2.64 1 4 C-2.3 3.67 -5.6 3.34 -9 3 C-9 2.67 -9 2.34 -9 2 C-6.03 1.34 -3.06 0.68 0 0 Z " fill="#D3474B" transform="translate(180,230)"/>
<path d="M0 0 C0.99 0 1.98 0 3 0 C2.33333333 3.33333333 1.66666667 6.66666667 1 10 C0.67 10 0.34 10 0 10 C0 6.7 0 3.4 0 0 Z " fill="#D92C28" transform="translate(86,222)"/>
<path d="M0 0 C1.32 0.33 2.64 0.66 4 1 C2.38405168 3.04119788 0.7143618 5.04072937 -1 7 C-1.66 7 -2.32 7 -3 7 C-2.67 6.01 -2.34 5.02 -2 4 C-1.34 4 -0.68 4 0 4 C0 2.68 0 1.36 0 0 Z " fill="#FCDFD9" transform="translate(226,223)"/>
<path d="M0 0 C0.33 0.66 0.66 1.32 1 2 C0.67 2.99 0.34 3.98 0 5 C-2.31 5.33 -4.62 5.66 -7 6 C-6.21625 5.38125 -5.4325 4.7625 -4.625 4.125 C-2.03162353 2.10141339 -2.03162353 2.10141339 0 0 Z " fill="#ECBCBC" transform="translate(240,248)"/>
<path d="M0 0 C5 2 5 2 10 4 C10 4.33 10 4.66 10 5 C6.63295715 5.2295711 4.58629732 5.33943529 1.625 3.625 C1.08875 3.08875 0.5525 2.5525 0 2 C0 1.34 0 0.68 0 0 Z " fill="#EBBABA" transform="translate(49,250)"/>
<path d="M0 0 C2.17854707 3.2678206 3.49760034 6.38058265 5 10 C4.01 10.33 3.02 10.66 2 11 C0.80712589 7.12315913 0 4.08378077 0 0 Z " fill="#EAB5B3" transform="translate(41,236)"/>
<path d="M0 0 C2.475 0.99 2.475 0.99 5 2 C3.68 3.32 2.36 4.64 1 6 C0.01 4.68 -0.98 3.36 -2 2 C-1.34 1.34 -0.68 0.68 0 0 Z " fill="#EFD1D3" transform="translate(49,120)"/>
<path d="M0 0 C0.99 0.33 1.98 0.66 3 1 C4.1875 3.5625 4.1875 3.5625 5 6 C5.66 6 6.32 6 7 6 C6.67 6.66 6.34 7.32 6 8 C1.125 3.375 1.125 3.375 0 0 Z " fill="#F9D2D0" transform="translate(198,222)"/>
<path d="M0 0 C1.98 0.99 1.98 0.99 4 2 C3.03114628 3.68496298 2.03013277 5.35178756 1 7 C0.67 7 0.34 7 0 7 C0 4.69 0 2.38 0 0 Z " fill="#EA2E2E" transform="translate(213,182)"/>
<path d="M0 0 C0.66 0.33 1.32 0.66 2 1 C2 1.66 2 2.32 2 3 C2.99 3.33 3.98 3.66 5 4 C0.545 4.495 0.545 4.495 -4 5 C-3.67 4.34 -3.34 3.68 -3 3 C-2.34 3 -1.68 3 -1 3 C-0.67 2.01 -0.34 1.02 0 0 Z " fill="#E8504F" transform="translate(172,160)"/>
<path d="M0 0 C-0.33 2.31 -0.66 4.62 -1 7 C-1.33 6.34 -1.66 5.68 -2 5 C-2.99 4.67 -3.98 4.34 -5 4 C-1.125 0 -1.125 0 0 0 Z " fill="#FC4D47" transform="translate(142,159)"/>
</svg>
